<svg width="500" height="500" viewBox="0 0 500 500" fill="none" xmlns="http://www.w3.org/2000/svg">
<g id="2844250 1">
<g id="Group">
<g id="OBJECTS">
<path id="Vector" d="M217.78 99.12H120.23V190.17H217.78V99.12Z" fill="#112B46"/>
<g id="Group_2" style="mix-blend-mode:screen">
<g id="Vector_2" style="mix-blend-mode:screen">
<path d="M217.78 99.12H120.23V108.75H217.78V99.12Z" fill="#1D262D"/>
</g>
</g>
<path id="Vector_3" d="M196.7 104C196.702 104.35 196.6 104.694 196.407 104.986C196.213 105.278 195.938 105.507 195.614 105.642C195.291 105.778 194.935 105.814 194.591 105.747C194.247 105.68 193.931 105.512 193.682 105.265C193.433 105.018 193.264 104.703 193.195 104.359C193.126 104.015 193.16 103.659 193.294 103.335C193.427 103.011 193.654 102.734 193.946 102.539C194.237 102.344 194.579 102.24 194.93 102.24C195.398 102.24 195.846 102.425 196.178 102.755C196.51 103.085 196.697 103.532 196.7 104V104Z" fill="#606BF1"/>
<path id="Vector_4" d="M204.07 104C204.072 104.35 203.97 104.694 203.777 104.986C203.583 105.278 203.308 105.507 202.984 105.642C202.661 105.778 202.305 105.814 201.961 105.747C201.617 105.68 201.301 105.512 201.052 105.265C200.803 105.018 200.634 104.703 200.565 104.359C200.496 104.015 200.53 103.659 200.664 103.335C200.797 103.011 201.024 102.734 201.316 102.539C201.607 102.344 201.949 102.24 202.3 102.24C202.768 102.24 203.216 102.425 203.548 102.755C203.88 103.085 204.067 103.532 204.07 104Z" fill="#FBD15B"/>
<path id="Vector_5" d="M210.91 104.23C210.91 104.58 210.806 104.923 210.611 105.214C210.416 105.506 210.139 105.733 209.815 105.866C209.491 106 209.135 106.034 208.791 105.965C208.447 105.896 208.132 105.727 207.885 105.478C207.638 105.229 207.47 104.913 207.403 104.569C207.336 104.225 207.372 103.869 207.508 103.546C207.643 103.222 207.872 102.947 208.164 102.753C208.456 102.56 208.799 102.458 209.15 102.46C209.382 102.46 209.612 102.506 209.826 102.595C210.04 102.684 210.234 102.815 210.398 102.979C210.562 103.144 210.691 103.339 210.779 103.553C210.867 103.768 210.911 103.998 210.91 104.23Z" fill="#FF8578"/>
<path id="Vector_6" d="M151.4 117.7H137.58V118.86H151.4V117.7Z" fill="#FF8578"/>
<path id="Vector_7" d="M167.62 117.7H153.8V118.86H167.62V117.7Z" fill="#FBD15B"/>
<path id="Vector_8" d="M163.28 123.96H141.85V125.12H163.28V123.96Z" fill="#606BF1"/>
<path id="Vector_9" d="M177.71 123.96H166.82V125.12H177.71V123.96Z" fill="#FF8578"/>
<path id="Vector_10" d="M158.69 130.21H149.28V131.37H158.69V130.21Z" fill="#FBD15B"/>
<path id="Vector_11" d="M195.35 130.21H164.13V131.37H195.35V130.21Z" fill="#FBD15B"/>
<path id="Vector_12" d="M192.27 136.47H156.59V137.63H192.27V136.47Z" fill="#606BF1"/>
<path id="Vector_13" d="M158.65 142.72H147.67V143.88H158.65V142.72Z" fill="#FF8578"/>
<path id="Vector_14" d="M174.33 142.72H163.35V143.88H174.33V142.72Z" fill="#606BF1"/>
<g id="Code1">
<path id="Vector_15" d="M153.55 175.18H137.58V176.34H153.55V175.18Z" fill="#FF8578"/>
<path id="Vector_16" d="M175.12 175.18H159.15V176.34H175.12V175.18Z" fill="#FBD15B"/>
<path id="Vector_17" d="M196.1 175.18H180.13V176.34H196.1V175.18Z" fill="#FF8578"/>
</g>
<path id="Vector_18" d="M173.07 168.92H141.85V170.08H173.07V168.92Z" fill="#606BF1"/>
<path id="Vector_19" d="M209.16 168.92H177.94V170.08H209.16V168.92Z" fill="#FF8578"/>
<path id="Vector_20" d="M180.26 162.67H149.28V163.83H180.26V162.67Z" fill="#FF8578"/>
<path id="Vector_21" d="M191.58 162.67H182.96V163.83H191.58V162.67Z" fill="#FBD15B"/>
<path id="Vector_22" d="M158.92 156.41H147.26V157.57H158.92V156.41Z" fill="#FBD15B"/>
<path id="Vector_23" d="M176.78 156.41H165.12V157.57H176.78V156.41Z" fill="#606BF1"/>
<path id="Vector_24" d="M195.94 156.41H184.28V157.57H195.94V156.41Z" fill="#FF8578"/>
<path id="Vector_25" d="M177.13 150.16H160.78V151.32H177.13V150.16Z" fill="#FBD15B"/>
<path id="Vector_26" d="M154.61 150.16H138.26V151.32H154.61V150.16Z" fill="#606BF1"/>
<path id="Vector_27" d="M130.03 116.58H128.54V118.07H130.03V116.58Z" fill="#F9FBFC"/>
<path id="Vector_28" d="M130 171.13H128.52V168.13H130V171.13ZM130 163.55H128.52V160.55H130V163.55ZM130 155.97H128.52V152.97H130V155.97ZM130 148.39H128.52V145.39H130V148.39ZM130 140.81H128.52V137.81H130V140.81ZM130 133.23H128.52V130.23H130V133.23ZM130 125.65H128.52V122.65H130V125.65Z" fill="#F9FBFC"/>
<path id="Vector_29" d="M130.03 175.67H128.54V177.16H130.03V175.67Z" fill="#F9FBFC"/>
<path id="Vector_30" d="M319.11 79.77H238.78V129.29H319.11V79.77Z" fill="#FF8578"/>
<path id="Vector_31" d="M270 99.69L260.45 103.77L270 107.77L268.75 110.66L257.29 105.54V102L268.75 96.85L270 99.69Z" fill="#F9FBFC"/>
<path id="Vector_32" d="M284.06 90.25L277.12 116.9L273.82 116.12L280.82 89.51L284.06 90.25Z" fill="#F9FBFC"/>
<path id="Vector_33" d="M300.65 102V105.55L289.18 110.67L287.93 107.78L297.46 103.78L287.93 99.7L289.18 96.87L300.65 102Z" fill="#F9FBFC"/>
<path id="Vector_34" d="M362.1 175.7H316.35V208.3H362.1V175.7Z" fill="#606BF1"/>
<path id="Vector_35" d="M335.49 182.74C334.01 182.74 333.49 183.13 333.49 184.23V189.14C333.49 191.05 332.7 191.64 331.37 192.01C332.7 192.36 333.49 192.95 333.49 194.84V199.74C333.49 200.84 334.01 201.24 335.49 201.24V203.39C331.77 203.39 330.72 202.2 330.72 199.72V195.07C330.72 193.74 330.37 193.23 329.16 193.23V190.77C330.37 190.77 330.72 190.24 330.72 188.9V184.26C330.72 181.76 331.72 180.59 335.49 180.59V182.74Z" fill="#F1F2F2"/>
<path id="Vector_36" d="M347.73 184.26V188.9C347.73 190.24 348.08 190.77 349.32 190.77V193.23C348.08 193.23 347.73 193.74 347.73 195.07V199.72C347.73 202.2 346.68 203.39 342.96 203.39V201.24C344.41 201.24 344.96 200.84 344.96 199.74V194.84C344.908 194.514 344.922 194.18 345.002 193.859C345.081 193.538 345.225 193.237 345.424 192.972C345.622 192.708 345.873 192.487 346.159 192.322C346.445 192.156 346.762 192.05 347.09 192.01C345.76 191.64 344.96 191.01 344.96 189.14V184.23C344.96 183.13 344.47 182.74 342.96 182.74V180.59C346.68 180.59 347.73 181.76 347.73 184.26Z" fill="#F1F2F2"/>
<path id="Vector_37" d="M140.51 86.88H89.18V121.21H140.51V86.88Z" fill="#FBD15B"/>
<path id="Magnify" d="M106.17 96.73C104.897 98.299 104.231 100.274 104.292 102.293C104.354 104.313 105.14 106.243 106.507 107.731C107.874 109.219 109.731 110.166 111.738 110.399C113.745 110.632 115.769 110.135 117.44 109L122.83 114.39C122.94 114.496 123.087 114.556 123.24 114.556C123.393 114.556 123.54 114.496 123.65 114.39L125.17 112.87C125.225 112.817 125.269 112.753 125.299 112.683C125.329 112.612 125.344 112.537 125.344 112.46C125.344 112.383 125.329 112.308 125.299 112.237C125.269 112.167 125.225 112.103 125.17 112.05L119.78 106.66C121.034 104.853 121.532 102.626 121.165 100.457C120.799 98.2872 119.598 96.3474 117.819 95.0524C116.04 93.7573 113.826 93.2099 111.649 93.5271C109.471 93.8444 107.505 95.0012 106.17 96.75V96.73ZM117 106.18C116.165 107.028 115.096 107.609 113.929 107.848C112.763 108.087 111.552 107.973 110.45 107.522C109.348 107.071 108.406 106.302 107.743 105.313C107.079 104.324 106.725 103.161 106.725 101.97C106.725 100.779 107.079 99.6157 107.743 98.627C108.406 97.6383 109.348 96.8694 110.45 96.418C111.552 95.9665 112.763 95.8531 113.929 96.0921C115.096 96.3311 116.165 96.9117 117 97.76C118.105 98.8825 118.725 100.395 118.725 101.97C118.725 103.545 118.105 105.058 117 106.18V106.18Z" fill="#F9FBFC"/>
<path id="Vector_38" d="M289.83 192.92C289.71 194.06 288.16 205.92 275.99 205.92C263.21 205.92 265.35 193.26 265.35 193.26V193.18C266.665 192.909 268.015 192.845 269.35 192.99V186.99L283.86 178.87H284.39V192.87C286.2 192.7 288.023 192.717 289.83 192.92V192.92Z" fill="url(#paint0_radial)"/>
<path id="Vector_39" d="M282.78 152.12C284.968 154.347 286.479 157.149 287.14 160.2C288.53 166.35 287.22 172.85 285.44 178.77C285.182 179.799 284.749 180.777 284.16 181.66C283.692 182.255 283.159 182.795 282.57 183.27C279.99 185.51 277.413 187.76 274.84 190.02C273.09 191.54 262.35 192.82 260.3 191.35C252.4 185.7 250.87 169.35 252.46 160.96C255.08 147.08 272.92 142.12 282.78 152.12Z" fill="url(#paint1_radial)"/>
<path id="Vector_40" d="M278.34 169.88C278.45 168.55 279.82 167.08 281.2 167.95C282.58 168.82 282.29 171.22 281.7 172.53C281.24 173.53 279.7 174.67 278.63 173.72C277.75 172.92 279.12 171.98 279.17 171.25C279.22 170.52 277.89 170.13 278.43 169.42" fill="#F7B094"/>
<path id="Vector_41" d="M278.59 176.06C279.534 176.211 280.501 176.027 281.323 175.539C282.145 175.051 282.77 174.291 283.09 173.39C283.477 171.99 283.662 170.542 283.64 169.09C284.128 170.62 284.252 172.244 284 173.83C283.62 176.75 282.6 179.54 280.31 179.57C278.02 179.6 278.59 176.06 278.59 176.06Z" fill="#F7B094"/>
<path id="Vector_42" d="M276.83 174C276.78 174.027 276.726 174.044 276.67 174.05C275.77 174.17 275.42 173.1 275.29 172.42C275.058 170.841 274.951 169.246 274.97 167.65C274.999 167.222 274.952 166.792 274.83 166.38C274.33 165.23 272.99 164.49 272.58 163.3C272.11 161.92 273.45 160.55 272.92 159.04C272.1 156.73 269.14 156.2 266.99 156.22C263.787 156.372 260.599 156.75 257.45 157.35C254.1 157.87 249.81 158.35 246.85 156.24C243.29 153.69 241.85 147.02 244.46 143.37C245.269 142.403 246.28 141.624 247.422 141.088C248.564 140.553 249.809 140.274 251.07 140.27C253.62 140.21 255.78 141.73 258.12 142.5C259.98 143.11 261.79 141.32 263.53 140.98C265.72 140.54 266.65 142.93 268.59 142.98C270.53 143.03 272.32 141.57 274.15 141.23C277.8 140.57 277.59 144.23 280.04 145.49C281.56 146.27 283.53 145.79 285.04 146.59C286.21 147.19 286.37 148.24 286.63 149.44C286.757 150.52 286.948 151.592 287.2 152.65C287.604 153.456 288.157 154.179 288.83 154.78C289.434 155.55 289.892 156.425 290.18 157.36C290.855 159.477 291.086 161.71 290.86 163.92C290.401 167.618 289.477 171.243 288.11 174.71C287.31 176.96 287.02 179.31 285.79 181.44C285.46 182.01 283.99 183.68 283.45 182.44C283.354 182.164 283.326 181.869 283.37 181.58C283.53 179.25 285.69 164.29 280.03 166.09C279.462 166.294 278.947 166.624 278.524 167.055C278.102 167.486 277.782 168.008 277.59 168.58C277.13 169.909 276.96 171.32 277.09 172.72C277.09 172.93 277.09 173.13 277.09 173.34C277.109 173.463 277.096 173.589 277.05 173.705C277.004 173.821 276.928 173.923 276.83 174V174Z" fill="#3D3D7A"/>
<path id="Vector_43" d="M269.34 191.6C275.79 190.6 280.04 185.47 280.04 185.47C279.436 187.978 278.024 190.217 276.022 191.843C274.02 193.47 271.538 194.393 268.96 194.47L269.34 191.6Z" fill="#F7B094"/>
<path id="Vector_44" d="M287.52 398.72H281.52C281.088 398.72 280.673 398.548 280.367 398.243C280.062 397.937 279.89 397.522 279.89 397.09V308.56H289.12V397.09C289.12 397.517 288.952 397.927 288.653 398.232C288.354 398.537 287.947 398.712 287.52 398.72V398.72Z" fill="#0A2033"/>
<path id="Vector_45" d="M303.59 317.53H265.48C263.806 317.53 262.202 316.865 261.018 315.682C259.835 314.498 259.17 312.894 259.17 311.22V309.83H309.9V311.22C309.9 312.894 309.235 314.498 308.052 315.682C306.868 316.865 305.264 317.53 303.59 317.53V317.53Z" fill="#30475E"/>
<path id="Vector_46" d="M287.52 410.36H281.52C281.088 410.36 280.673 410.188 280.367 409.883C280.062 409.577 279.89 409.162 279.89 408.73V388.22H289.12V408.74C289.117 409.165 288.949 409.573 288.65 409.876C288.351 410.178 287.945 410.352 287.52 410.36V410.36Z" fill="#0A2033"/>
<path id="Vector_47" d="M236.66 405C236.66 406.068 236.977 407.112 237.57 408C238.163 408.888 239.007 409.58 239.993 409.989C240.98 410.398 242.066 410.505 243.113 410.296C244.161 410.088 245.123 409.574 245.878 408.818C246.634 408.063 247.148 407.101 247.356 406.053C247.565 405.006 247.458 403.92 247.049 402.934C246.64 401.947 245.948 401.103 245.06 400.51C244.172 399.917 243.128 399.6 242.06 399.6C240.628 399.6 239.254 400.169 238.242 401.182C237.229 402.194 236.66 403.568 236.66 405Z" fill="#0A2033"/>
<path id="Vector_48" d="M321.62 405C321.62 406.068 321.937 407.112 322.53 408C323.123 408.888 323.967 409.58 324.954 409.989C325.94 410.398 327.026 410.505 328.073 410.296C329.121 410.088 330.083 409.574 330.838 408.818C331.594 408.063 332.108 407.101 332.316 406.053C332.525 405.006 332.418 403.92 332.009 402.934C331.6 401.947 330.908 401.103 330.02 400.51C329.132 399.917 328.088 399.6 327.02 399.6C325.588 399.6 324.214 400.169 323.202 401.182C322.189 402.194 321.62 403.568 321.62 405Z" fill="#0A2033"/>
<path id="Vector_49" d="M275.25 397.57H293.81V381.35H275.25V397.57Z" fill="#30475E"/>
<path id="Vector_50" d="M332.41 401.39H236.65V399.51C236.65 397.985 237.256 396.522 238.334 395.444C239.412 394.366 240.875 393.76 242.4 393.76H326.66C328.185 393.76 329.648 394.366 330.726 395.444C331.804 396.522 332.41 397.985 332.41 399.51V401.39Z" fill="#FBD15B"/>
<path id="Vector_51" d="M284.54 319.35H281.34V379.9H284.54V319.35Z" fill="#30475E"/>
<path id="Vector_52" d="M320.79 244.4C320.265 244.382 319.742 244.474 319.255 244.671C318.767 244.867 318.326 245.163 317.96 245.539C317.594 245.916 317.31 246.365 317.128 246.858C316.945 247.35 316.868 247.876 316.9 248.4C317.53 259.4 315.2 286.2 304.97 295.34C292.45 306.53 256.97 305.01 256.97 305.01C256.97 305.01 251.11 312.2 262.83 313.79C274.55 315.38 307.56 314.33 315.55 306.87C323.28 299.65 327.87 280.74 324.42 247.87C324.327 246.958 323.907 246.111 323.238 245.484C322.569 244.858 321.696 244.494 320.78 244.46L320.79 244.4Z" fill="#FBD15B"/>
<path id="Vector_53" d="M254.32 379.9L258.54 389.52L245.62 395.19L241.38 385.54L254.32 379.9Z" fill="url(#paint2_radial)"/>
<path id="Vector_54" d="M315.28 273C314.48 274.6 257.05 273 251.62 273.53C251.62 273.53 216.47 290.3 211.43 306.01C210.886 308.019 210.716 310.11 210.93 312.18C212.34 334.29 237.52 387.24 237.52 387.24L241.38 385.54L254.32 379.9L256.16 379.1C256.16 379.1 236.16 319.59 240.16 316.39C244.16 313.19 289.42 305.21 305.16 300.96C320.9 296.71 315.28 273 315.28 273Z" fill="#56548C"/>
<path id="Vector_55" d="M205.05 382.38L206.06 396.83H191.95L190.94 382.35L205.05 382.38Z" fill="url(#paint3_radial)"/>
<path id="Vector_56" d="M251.34 273L250.83 273.23C250.83 273.23 192 281.52 182.4 298C176.16 308.74 188.22 387.19 188.22 387.19L209.04 387.24C209.04 387.24 205.93 321.89 206.97 318.24C208.13 314.09 210.13 312.59 210.97 312.16C210.756 310.09 210.926 307.998 211.47 305.99C216.47 290.28 251.66 273.51 251.66 273.51C251.503 273.377 251.392 273.199 251.34 273Z" fill="#3D3D7A"/>
<path id="Vector_57" d="M308.17 218.66L304.23 219.2C303.524 226.353 302.419 233.461 300.92 240.49L251.76 259.15L251.09 262.71H250.48C250.48 263.45 250.48 264.17 250.53 264.84C250.64 268.94 250.91 271.9 251.34 273.08C251.385 273.272 251.486 273.445 251.63 273.58C252.97 274.67 270.35 272.58 289.15 279.46C305.45 285.46 314.59 291.98 315.01 291.1C320.14 280.4 310.81 238.6 308.17 218.66Z" fill="#FF8578"/>
<path id="Vector_58" d="M303 243C301.69 249.3 298.31 261.82 291.66 263.5C282.98 265.71 266.21 265.59 250.49 264.75C250.49 264.08 250.49 263.36 250.44 262.62H251.05L251.72 259.06L300.88 240.4C302.379 233.37 303.484 226.263 304.19 219.11C304.19 219.11 304.19 219.18 304.19 219.29C304.34 221 305 233.74 303 243Z" fill="#F4675D"/>
<path id="Vector_59" d="M253.77 203C252.89 204.59 251.62 221.69 250.94 238.66L240.89 229.28C245.15 221 253.77 203 253.77 203Z" fill="#F4675D"/>
<path id="Vector_60" d="M231.46 253.75L231.25 260.75H205.69C205.69 260.75 208.23 250.75 215.15 250.75C222.07 250.75 224.73 254.41 224.73 254.41L231.46 253.75Z" fill="url(#paint4_radial)"/>
<g id="MoveArm">
<g id="MoveArm_2">
<path id="Vector_61" d="M247.74 251C239.26 252.47 231.46 253.74 231.46 253.74V254.15C222.01 246.61 207.65 225.25 207.65 225.25C207.65 225.25 211.95 220.09 213.02 218.73C213.18 218.52 236.6 234.64 237.8 234.5C238.1 234.5 239.3 232.36 240.9 229.23L250.95 238.61C250.79 242.61 250.66 246.68 250.58 250.49C249.63 250.68 248.68 250.84 247.74 251Z" fill="#F7B094"/>
<path id="Vector_62" d="M212.82 218.58L213.01 218.74C211.94 220.1 207.64 225.26 207.64 225.26L205 223.37C204.018 223.891 202.921 224.156 201.81 224.142C200.698 224.128 199.608 223.835 198.64 223.29C195.08 221.36 197.28 216.74 197.47 216.2C196.78 216.39 192.47 219.84 191.84 219.48C191.21 219.12 190.67 217.89 195.45 213.18C200.23 208.47 206.69 214.52 206.89 214.52L212.82 218.58Z" fill="#F7B094"/>
</g>
<path id="Vector_63" d="M199.17 222.49C199.17 222.49 198.17 224.42 199.97 225.26C202.171 226.136 204.521 226.578 206.89 226.56C208.42 226.41 209.64 224.27 209.64 224.27L205 219.92H201.3L199.17 222.49Z" fill="#F7B094"/>
<path id="Vector_64" d="M198.89 223.44C199.17 222.49 201.8 223 203.43 223.04C204.63 223.04 205.29 222.75 205.66 221.83C206.03 220.91 204.29 219.46 203.95 219.92C203.61 220.38 204.58 221.02 204.6 221.63C204.62 222.24 202.89 222.44 201.54 222.44C200.314 222.488 199.092 222.605 197.88 222.79L198.89 223.44Z" fill="#E8987C"/>
</g>
<path id="Vector_65" d="M298.42 249.56L273.42 240.69C271.59 244.1 269.64 246.69 267.71 247.16C264.79 247.93 257.71 249.26 250.6 250.5C249.66 250.68 248.71 250.84 247.77 251.01C239.29 252.48 231.49 253.75 231.49 253.75V254.16V254.43L231.3 260.75V262.35C237.708 262.104 244.124 262.207 250.52 262.66C265.52 263.73 284.87 264.37 291.28 261.35C294.28 259.93 296.68 255.26 298.57 249.51L298.42 249.56Z" fill="url(#paint5_radial)"/>
<path id="Vector_66" d="M273.38 240.69L298.42 249.56L297.29 252.91L272.51 242.28L273.38 240.69Z" fill="#F7B094"/>
<path id="Vector_67" d="M273.39 240.69C271.56 244.1 269.61 246.69 267.68 247.16C264.76 247.93 257.68 249.26 250.57 250.5C250.65 246.69 250.78 242.66 250.94 238.62C251.62 221.62 252.89 204.55 253.77 202.96C255.2 200.29 259.13 194.49 265.33 193.16V193.24C265.33 193.24 263.21 205.9 276 205.9C288.17 205.9 289.72 194.06 289.84 192.9C296.1 193.6 305.7 196.74 307.03 209.33C307.3 211.82 307.68 215.01 308.18 218.64L304.23 219.18C304.23 219.18 302.63 236.92 298.53 249.49L298.43 249.54L273.39 240.69Z" fill="#FF8578"/>
<g id="Vector_68" style="mix-blend-mode:screen">
<path d="M273.13 238.39L283.12 214.19L275.76 239.36L273.13 238.39Z" fill="#6D4B35"/>
</g>
<path id="Vector_69" d="M289.83 192.92H284.38C284.38 192.92 276.62 201.43 271.64 201.43C266.66 201.43 269.34 192.97 269.34 192.97H266.91C263.535 192.973 260.279 194.216 257.762 196.464C255.245 198.712 253.643 201.807 253.26 205.16C253.17 205.95 253.08 206.7 253.01 207.39C252.48 212.54 273.34 216.28 273.34 216.28L284.09 215.68L290.61 203L291.91 197.78L289.83 192.92Z" fill="#FF8578"/>
<g id="Foot">
<path id="Vector_70" d="M224.08 406.26C224.57 408.87 226.37 410.72 228.98 410.26L263.68 403.79C264.101 403.71 264.474 403.466 264.716 403.112C264.958 402.757 265.049 402.322 264.97 401.9L264.4 398.82C264.4 398.82 227.9 405.21 224.07 406.27L224.08 406.26Z" fill="#F1F2F2"/>
<path id="Foot_2" d="M234.41 397.53L235.48 396.59L237.48 394.77C237.83 394.46 238.18 394.15 238.48 393.85L240.24 392.28L241.31 391.28L242.73 390.01C242.87 389.893 243.047 389.829 243.23 389.829C243.413 389.829 243.59 389.893 243.73 390.01C245.16 391.21 249.73 393.95 258.12 388.78C258.214 388.723 258.319 388.686 258.427 388.67C258.536 388.654 258.647 388.66 258.754 388.688C258.86 388.716 258.96 388.765 259.047 388.833C259.134 388.9 259.206 388.984 259.26 389.08L264.26 398.78C264.26 398.78 227.76 405.17 223.93 406.23C225.33 405.46 230 401.43 234.41 397.53Z" fill="#3D3D7A"/>
</g>
<path id="Vector_71" d="M169.43 405.92C169.5 408.57 170.98 410.68 173.63 410.62L208.92 409.76C209.133 409.755 209.342 409.708 209.537 409.622C209.732 409.535 209.907 409.412 210.054 409.257C210.201 409.103 210.316 408.922 210.392 408.723C210.469 408.524 210.505 408.313 210.5 408.1L210.42 404.97C210.42 404.97 173.42 405.46 169.42 405.9L169.43 405.92Z" fill="#F1F2F2"/>
<path id="Vector_72" d="M181 398.94L182.2 398.19L184.51 396.72L185.66 395.98L187.66 394.7L188.87 393.91L190.47 392.91C190.626 392.811 190.813 392.771 190.996 392.796C191.179 392.822 191.347 392.912 191.47 393.05C192.68 394.46 196.8 397.9 205.87 394.13C205.971 394.085 206.081 394.063 206.191 394.063C206.302 394.063 206.411 394.087 206.512 394.132C206.612 394.177 206.703 394.243 206.777 394.326C206.85 394.408 206.906 394.505 206.94 394.61L210.42 405C210.42 405 173.42 405.49 169.42 405.93C170.79 405.33 176 402.09 181 398.94Z" fill="#3D3D7A"/>
<path id="Vector_73" d="M144.33 262.35L125.48 212.08H179.14L197.98 262.35H144.33Z" fill="#ABB5BA"/>
<path id="Vector_74" d="M201.3 262.35H197.98L179.14 212.08L182.15 212.22L199.58 257.71L201.3 262.35Z" fill="#8495A0"/>
<path id="Vector_75" d="M200.26 262.35H235.71L235.62 259.18H199.53" fill="#8495A0"/>
<path id="Vector_76" d="M351.31 271.93H342.77V412.16H351.31V271.93Z" fill="#8495A0"/>
<path id="Vector_77" d="M304.97 271.93H296.43V412.16H304.97V271.93Z" fill="#ABB5BA"/>
<path id="Vector_78" d="M156.53 271.93H147.99V412.16H156.53V271.93Z" fill="#8495A0"/>
<path id="Vector_79" d="M110.2 271.93H101.66V412.16H110.2V271.93Z" fill="#ABB5BA"/>
<path id="Vector_80" d="M359.84 262.35H93.48C91.188 262.35 89.33 264.208 89.33 266.5V268.32C89.33 270.612 91.188 272.47 93.48 272.47H359.84C362.132 272.47 363.99 270.612 363.99 268.32V266.5C363.99 264.208 362.132 262.35 359.84 262.35Z" fill="#141B56"/>
<path id="Vector_81" d="M134.44 217.37L135.36 219.81H146.05L145.13 217.37H134.44Z" fill="#8495A0"/>
<path id="Vector_82" d="M240.89 229.24L240.12 230.72L250.94 241.9V238.62L240.89 229.24Z" fill="#E8987C"/>
<path id="Vector_83" d="M461.66 410.36H29.74V420.22H461.66V410.36Z" fill="#A5B7C6"/>
<path id="Vector_84" d="M393.18 337.21C391.47 345.54 392 359.72 381 362C378 362.6 375.17 360.55 373.45 358.19C371.19 355.11 370.65 348.58 370.69 344.85C370.69 341.85 371.69 338.59 372.05 335.61C372.4 332.39 372.69 329.15 373.05 325.93C374.4 314.33 380.46 304.6 390.72 298.8C391.52 302.61 393.33 305.8 394.92 309.5C395.664 311.176 396.286 312.904 396.78 314.67C397.62 317.77 396.6 320.9 395.85 323.86C394.73 328.21 394.1 332.78 393.18 337.21Z" fill="url(#paint6_linear)"/>
<path id="Vector_85" d="M379.11 362.25C379.18 361.55 379.27 360.85 379.36 360.15C380.707 360.004 382.003 359.552 383.15 358.83C385.015 357.789 386.702 356.459 388.15 354.89C388.23 354.81 388.09 354.68 388.01 354.75C386.547 356.063 384.916 357.176 383.16 358.06C382.009 358.698 380.768 359.16 379.48 359.43C379.6 358.6 379.73 357.77 379.86 356.94C381.229 356.615 382.518 356.017 383.65 355.18C385.566 353.944 387.381 352.56 389.08 351.04C386.39 352.99 383.4 355.77 379.99 356.38C380.17 355.38 380.37 354.3 380.58 353.27C380.586 353.217 380.586 353.163 380.58 353.11C384.52 352.11 387.18 349.03 390.19 346.53C390.24 346.53 390.19 346.41 390.14 346.45C387.14 348.75 384.38 351.38 380.71 352.5C381.03 351.03 381.36 349.56 381.71 348.09C385.183 346.811 388.254 344.633 390.61 341.78C390.61 341.73 390.61 341.67 390.54 341.71C388.044 344.168 385.097 346.121 381.86 347.46C382.18 346.01 382.51 344.56 382.86 343.1C384.445 342.48 385.98 341.738 387.45 340.88C388.873 339.932 390.086 338.699 391.01 337.26C391.019 337.253 391.027 337.244 391.032 337.234C391.037 337.224 391.039 337.213 391.039 337.201C391.038 337.19 391.035 337.179 391.03 337.169C391.024 337.159 391.016 337.151 391.006 337.144C390.997 337.138 390.986 337.135 390.974 337.134C390.963 337.133 390.952 337.135 390.941 337.139C390.931 337.144 390.921 337.151 390.914 337.159C390.907 337.168 390.902 337.179 390.9 337.19C388.9 340.05 385.9 340.95 382.99 342.45C383.28 341.09 383.54 339.73 383.78 338.36C387.01 336.58 390.53 334.93 392.36 331.51C392.36 331.51 392.36 331.45 392.31 331.51C390.37 334.65 386.97 336 383.89 337.71C383.89 337.46 383.98 337.22 384.01 336.98C384.21 335.7 384.4 334.43 384.58 333.16C386.44 332.372 388.218 331.404 389.89 330.27C391.148 329.59 392.248 328.653 393.12 327.52C393.131 327.504 393.134 327.485 393.131 327.466C393.127 327.447 393.116 327.431 393.1 327.42C393.084 327.409 393.065 327.406 393.046 327.409C393.027 327.413 393.011 327.424 393 327.44C391.27 329.93 387.47 331.36 384.66 332.61C384.84 331.32 385.02 330.04 385.21 328.75C388.32 326.87 391.99 325.82 393.9 322.43C393.96 322.33 393.81 322.23 393.75 322.33C391.75 325.43 388.27 326.39 385.29 328.15C385.41 327.36 385.52 326.56 385.64 325.76C389.01 324.53 392.92 321.71 394.69 318.67C394.705 318.637 394.707 318.6 394.697 318.566C394.687 318.531 394.664 318.501 394.634 318.482C394.604 318.463 394.568 318.455 394.532 318.46C394.496 318.465 394.464 318.483 394.44 318.51C392.258 321.528 389.231 323.832 385.74 325.13C385.94 323.84 386.15 322.56 386.38 321.27C386.403 321.236 386.419 321.199 386.43 321.16C387.956 320.573 389.401 319.793 390.73 318.84C392.357 317.949 393.748 316.684 394.79 315.15C394.89 314.98 394.61 314.81 394.51 314.99C393.01 317.66 389.51 319.45 386.51 320.47C386.6 320 386.68 319.53 386.77 319.06C386.91 318.36 387.05 317.66 387.2 316.97C388.4 316.14 389.93 315.74 391.13 314.86C392.161 314.076 393.121 313.202 394 312.25C394.09 312.16 393.95 312.02 393.86 312.1C392.682 313.271 391.354 314.279 389.91 315.1C389.08 315.55 388.13 315.8 387.33 316.28C387.56 315.14 387.8 314 388.02 312.85H388.11C388.144 312.86 388.18 312.859 388.214 312.849C388.248 312.838 388.278 312.818 388.3 312.79C389.94 312.38 391.19 310.97 392.3 309.79C392.3 309.79 392.3 309.72 392.3 309.79C391.186 310.979 389.819 311.901 388.3 312.49H388.19C388.36 311.56 388.53 310.62 388.69 309.69C388.719 309.688 388.746 309.679 388.772 309.666C388.797 309.652 388.819 309.634 388.837 309.611C388.855 309.589 388.868 309.563 388.875 309.535C388.883 309.507 388.884 309.478 388.88 309.45C389.743 308.844 390.546 308.157 391.28 307.4C391.33 307.35 391.28 307.26 391.19 307.31C390.456 307.958 389.655 308.524 388.8 309C389.122 307.066 389.339 305.117 389.45 303.16C389.45 302.98 389.19 302.98 389.17 303.16C389 305.05 388.73 306.92 388.4 308.78C387.425 307.637 386.602 306.373 385.95 305.02C385.95 305.004 385.944 304.989 385.932 304.978C385.921 304.966 385.906 304.96 385.89 304.96C385.874 304.96 385.859 304.966 385.848 304.978C385.836 304.989 385.83 305.004 385.83 305.02C386.135 305.839 386.538 306.618 387.03 307.34C387.394 308.041 387.815 308.71 388.29 309.34C388.11 310.34 387.91 311.34 387.71 312.34C386.43 312.276 385.22 311.734 384.321 310.821C383.421 309.908 382.896 308.691 382.85 307.41C382.85 307.23 382.56 307.23 382.57 307.41C382.658 308.727 383.158 309.983 384 311C384.927 311.934 386.143 312.526 387.45 312.68C387.21 313.83 386.96 314.98 386.71 316.13C385.726 315.491 384.784 314.789 383.89 314.03C382.619 312.831 381.43 311.548 380.33 310.19C380.21 310.06 380 310.25 380.13 310.38C381.152 311.693 382.258 312.939 383.44 314.11C384.413 315.027 385.479 315.842 386.62 316.54V316.72C386.589 316.756 386.572 316.802 386.572 316.85C386.572 316.898 386.589 316.944 386.62 316.98C386.38 318.08 386.13 319.18 385.9 320.28C385.906 320.347 385.906 320.413 385.9 320.48C383.34 319.31 379.51 317.27 379.17 314.3C379.17 314.02 378.72 314.1 378.78 314.39C379.54 317.75 383.24 319.24 385.78 321.08C385.53 322.32 385.3 323.57 385.09 324.82C383.424 324.299 381.861 323.494 380.47 322.44C379.21 321.44 377.42 320.23 376.86 318.67C376.86 318.62 376.76 318.67 376.78 318.67C377.31 320.22 378.91 321.28 380.08 322.34C381.454 323.712 383.133 324.74 384.98 325.34C384.965 325.396 384.965 325.454 384.98 325.51C384.85 326.3 384.73 327.1 384.6 327.89C381.49 327.65 377.14 325.29 375.55 322.94C376.676 324.612 378.268 325.917 380.13 326.69C381.492 327.499 382.995 328.042 384.56 328.29L383.9 332.71C382.55 332.21 381.12 331.97 379.79 331.43C377.856 330.614 376.224 329.216 375.12 327.43C375.04 327.32 374.87 327.43 374.94 327.52C377.09 330.94 380.19 331.95 383.82 333.23C383.64 334.44 383.45 335.65 383.25 336.85C380.25 336.28 376.44 334.47 374.93 331.85C374.82 331.66 374.52 331.85 374.63 332.01C375.673 333.581 377.154 334.812 378.89 335.55C380.206 336.375 381.659 336.957 383.18 337.27C383.175 337.31 383.175 337.35 383.18 337.39C382.88 339.13 382.54 340.85 382.18 342.57C378.86 341.74 376.72 339.28 374.3 336.98C374.14 336.82 373.87 337.06 374.04 337.23C376.5 339.64 378.66 342.18 382.04 343.08C381.73 344.48 381.41 345.87 381.04 347.27C378.103 346.352 375.508 344.576 373.59 342.17C373.46 342 373.23 342.22 373.35 342.39C375.299 344.883 377.923 346.764 380.91 347.81C380.54 349.3 380.16 350.81 379.78 352.28C376.963 351.723 374.476 350.086 372.85 347.72C372.85 347.67 372.72 347.72 372.76 347.8C374.34 350.01 376.76 352.56 379.64 352.8L379.27 354.22C379.2 354.51 379.12 354.8 379.04 355.1C376.865 354.543 374.824 353.553 373.04 352.19C372.99 352.19 372.93 352.19 372.98 352.27C374.717 353.783 376.765 354.896 378.98 355.53C378.74 356.43 378.48 357.35 378.23 358.29C377.692 358.011 377.134 357.773 376.56 357.58C375.581 357.172 374.66 356.638 373.82 355.99C373.73 355.99 373.64 356.06 373.72 356.12C374.449 356.739 375.244 357.275 376.09 357.72C376.79 357.98 377.46 358.32 378.14 358.62C377.14 362.34 376.25 366.3 376.73 369.87C376.84 370.66 378.17 370.87 378.37 370.03C378.773 367.454 379.02 364.856 379.11 362.25V362.25Z" fill="#747DED"/>
<path id="Vector_86" d="M358.33 334.83C360.33 343.1 366.74 355.74 357.7 362.43C355.27 364.23 351.81 363.57 349.25 362.16C345.9 360.32 342.66 354.63 341.12 351.23C339.9 348.54 339.42 345.12 338.46 342.23C337.46 339.16 336.31 336.11 335.29 333.03C331.62 322 333 310.61 339.86 301C342.19 304.12 345.19 306.28 348.18 308.93C349.566 310.131 350.86 311.435 352.05 312.83C354.12 315.29 354.52 318.55 355.05 321.56C355.93 326 357.29 330.43 358.33 334.83Z" fill="url(#paint7_linear)"/>
<path id="Vector_87" d="M377.42 328.42C377.88 338.93 382.8 355.79 370.27 361.82C366.89 363.45 362.83 361.82 360.05 359.54C356.41 356.54 353.78 348.86 352.7 344.37C351.84 340.81 352.05 336.55 351.53 332.87C350.98 328.87 350.34 324.94 349.81 320.96C347.92 306.62 352.25 293.11 362.81 283.05C364.91 287.38 368.06 290.7 371.09 294.6C372.491 296.387 373.758 298.276 374.88 300.25C376.83 303.71 376.56 307.77 376.56 311.56C376.54 317.15 377.17 322.82 377.42 328.42Z" fill="url(#paint8_linear)"/>
<path id="Vector_88" d="M384.33 366.66L383.87 375.2L383.14 388.51L381.95 410.36H352.36L351.17 388.51L350.45 375.2L349.98 366.66H384.33Z" fill="#95A8B5"/>
<path id="Vector_89" d="M383.87 375.2L383.77 376.92L383.68 378.69L383.14 388.51H351.17L350.64 378.69L350.54 376.92L350.45 375.2H383.87Z" fill="#A5B7C6"/>
<path id="Vector_90" d="M383.77 376.92L383.68 378.69H350.64L350.54 376.92H383.77Z" fill="#95A8B5"/>
</g>
</g>
</g>
<defs>
<radialGradient id="paint0_radial" cx="0" cy="0" r="1" gradientUnits="userSpaceOnUse" gradientTransform="translate(277.52 192.38) scale(12.93)">
<stop stop-color="#FFC8AF"/>
<stop offset="1" stop-color="#FFBB9C"/>
</radialGradient>
<radialGradient id="paint1_radial" cx="0" cy="0" r="1" gradientUnits="userSpaceOnUse" gradientTransform="translate(11638.1 5511.66) rotate(-12.15) scale(730.114 920.044)">
<stop stop-color="#FFC8AF"/>
<stop offset="1" stop-color="#FFBB9C"/>
</radialGradient>
<radialGradient id="paint2_radial" cx="0" cy="0" r="1" gradientUnits="userSpaceOnUse" gradientTransform="translate(4530.69 6305.54) scale(139.511 124.308)">
<stop stop-color="#FFC8AF"/>
<stop offset="1" stop-color="#FFBB9C"/>
</radialGradient>
<radialGradient id="paint3_radial" cx="0" cy="0" r="1" gradientUnits="userSpaceOnUse" gradientTransform="translate(3192.26 6023.61) scale(111.888 107.152)">
<stop stop-color="#FFC8AF"/>
<stop offset="1" stop-color="#FFBB9C"/>
</radialGradient>
<radialGradient id="paint4_radial" cx="0" cy="0" r="1" gradientUnits="userSpaceOnUse" gradientTransform="translate(6482.23 2757.75) scale(1067.91 414.4)">
<stop stop-color="#FFC8AF"/>
<stop offset="1" stop-color="#FFBB9C"/>
</radialGradient>
<radialGradient id="paint5_radial" cx="0" cy="0" r="1" gradientUnits="userSpaceOnUse" gradientTransform="translate(16615.6 5971.51) scale(2787.67 947.288)">
<stop stop-color="#FFC8AF"/>
<stop offset="1" stop-color="#FFBB9C"/>
</radialGradient>
<linearGradient id="paint6_linear" x1="382.063" y1="299.19" x2="382.124" y2="362.261" gradientUnits="userSpaceOnUse">
<stop stop-color="#606BF1"/>
<stop offset="1" stop-color="#58479F"/>
</linearGradient>
<linearGradient id="paint7_linear" x1="7157.91" y1="-15232.7" x2="7316.81" y2="-12688.5" gradientUnits="userSpaceOnUse">
<stop stop-color="#606BF1"/>
<stop offset="1" stop-color="#58479F"/>
</linearGradient>
<linearGradient id="paint8_linear" x1="11318.3" y1="-11509.3" x2="10598" y2="-8231.63" gradientUnits="userSpaceOnUse">
<stop stop-color="#606BF1"/>
<stop offset="1" stop-color="#58479F"/>
</linearGradient>
</defs>
</svg>
