<svg width="358" height="330" viewBox="0 0 358 330" fill="none" xmlns="http://www.w3.org/2000/svg">
<g id="Untitled-2 1" clip-path="url(#clip0)">
<g id="Vector" filter="url(#filter0_d)">
<path d="M86.6 23.74C63.37 27.22 42.27 43.61 32.34 65.89C23.04 86.78 23.49 110.74 21.75 133.72C20.3115 152.883 17.2267 171.886 12.53 190.52C8.79999 205.32 4.05999 219.88 1.58999 234.97C-0.880015 250.06 -0.970011 265.97 4.42999 280.23C10.94 297.36 25.57 310.87 42.62 315.49C55.36 318.94 68.76 317.61 81.91 317.13C136.32 315.13 192.72 327.89 244.11 309.08C249.18 307.22 254.39 304.88 257.63 300.4C260.63 296.3 261.48 290.97 261.9 285.85C264.15 258.47 255.55 231.11 242.59 207.23C236.71 196.41 229.59 185.77 219.21 179.66C209.93 174.19 198.26 172.43 191.32 163.99C183.5 154.49 184.68 140.45 184.98 127.91C185.605 101.313 180.222 74.9176 169.23 50.69C166.18 44 162.57 37.36 157.1 32.69C151.2 27.63 143.62 25.25 136.1 23.82C121.967 21.1323 107.431 21.4081 93.41 24.63C91.2574 23.7409 88.9088 23.4339 86.6 23.74V23.74Z" fill="#A33327"/>
</g>
<path id="Vector_2" d="M122.53 27.09C123.4 32.9 123.02 42.55 122.39 48.39C122.259 50.3289 121.886 52.2437 121.28 54.09C120.681 55.5769 119.883 56.9762 118.91 58.25C118.011 59.6689 116.809 60.8711 115.39 61.77C114.685 62.1989 113.873 62.4191 113.048 62.4049C112.224 62.3907 111.42 62.1428 110.73 61.69C109.907 63.8576 109.467 66.1517 109.43 68.47C106.5 68.23 103.55 68.24 100.64 67.8C97.9653 67.2417 95.3899 66.2843 93 64.96C92.88 64.9 92.74 64.79 92.77 64.65C92.8 64.51 93.05 64.71 92.91 64.73C93.7235 59.9556 94.1483 55.1231 94.18 50.28C94.18 47.81 90.74 45.1 90.36 42.66C90.1 40.95 90.09 38.59 89.91 36.87C89.51 32.93 94.08 29.47 96.42 26.36C98.7911 23.3168 101.973 21.0048 105.6 19.69C109.6 18.18 114.24 17.81 118.01 19.89C121.78 21.97 124.15 22.96 122.53 27.09Z" fill="#E88B77"/>
<path id="Vector_3" d="M102.33 27.09C101.779 29.1422 100.835 31.068 99.55 32.76C98.9105 33.5237 98.313 34.3216 97.76 35.15C97.1994 36.0036 96.9488 37.0238 97.05 38.04C96.1854 37.4676 95.2057 37.0921 94.18 36.94C93.67 36.8987 93.1575 36.9808 92.6858 37.1792C92.2142 37.3776 91.7971 37.6866 91.47 38.08C90.9233 38.9308 90.6932 39.9467 90.82 40.95C91.02 44.12 93.06 47.23 96 48.02C94.08 50.61 93.86 53.9 93.81 57.18C91.66 57.1 89.45 53.96 88.96 51.77L85.03 34.05C84.5022 32.0373 84.2102 29.9701 84.16 27.89C84.1125 25.8035 84.803 23.7672 86.11 22.14C87.4536 20.79 89.1646 19.8649 91.03 19.48C91.87 15.55 95.69 12.88 99.37 11.69C103.37 10.4 107.9 9.87001 111.74 11.69C113.74 12.62 115.38 14.1 117.38 14.9C120.08 15.97 123.31 15.79 125.52 17.73C126.256 18.4036 126.813 19.2502 127.139 20.1931C127.466 21.136 127.552 22.1454 127.39 23.13C127.223 24.1031 126.809 25.017 126.188 25.784C125.566 26.551 124.757 27.1454 123.84 27.51C121.84 28.24 119.72 27.75 117.68 27.34C113.906 26.5825 110.077 26.1278 106.23 25.98C104.96 25.94 102.68 25.81 102.33 27.09Z" fill="#392F36"/>
<g id="Foot">
<path id="Vector_4" d="M204.11 299.69C204.11 299.69 204.11 306.17 204.83 309.18C205.55 312.19 196.92 317.01 196.92 317.01L189.3 310.69C189.778 307.044 189.972 303.366 189.88 299.69C189.6 295.22 204.11 299.69 204.11 299.69Z" fill="#E88A76"/>
<path id="Vector_5" d="M190.53 328.57C192.961 329.098 195.466 329.192 197.93 328.85C198.837 328.675 199.766 328.655 200.68 328.79C200.899 328.166 201.304 327.625 201.84 327.238C202.377 326.852 203.019 326.64 203.68 326.63C204.337 326.649 204.983 326.802 205.578 327.081C206.173 327.36 206.705 327.758 207.14 328.25C207.548 328.794 208.062 329.25 208.65 329.59C209.115 329.755 209.609 329.816 210.1 329.77L227.33 329.38C228.49 329.38 229.82 329.24 230.52 328.28C230.951 327.522 231.132 326.647 231.04 325.78C231.15 324.14 230.752 322.506 229.9 321.1C228.66 319.48 226.43 319.46 224.52 318.87C222.61 318.28 220.89 317.37 218.87 316.72C216.579 315.935 214.486 314.664 212.734 312.993C210.982 311.322 209.612 309.291 208.72 307.04C208.52 306.279 208.115 305.587 207.55 305.04C206.67 304.38 205.45 304.69 204.43 305.04C203.187 305.513 201.98 306.078 200.82 306.73C200.01 307.18 199.12 307.88 199.22 308.83C199.35 310.06 201.12 310.96 200.59 312.07C200.29 312.71 199.44 312.74 198.77 312.67C195.339 312.275 191.998 311.315 188.88 309.83C188.616 311.41 188.485 313.009 188.49 314.61C188.64 318.03 188.79 321.44 188.95 324.86C189.101 326.225 189.651 327.515 190.53 328.57Z" fill="#1A1D3E"/>
</g>
<path id="Vector_6" d="M207.6 300.34C205.86 302.08 203.37 302.67 200.99 302.99C194.706 303.859 188.309 303.371 182.23 301.56C177.93 293.2 179.78 283.04 179.86 273.56C179.799 268.083 179.421 262.614 178.73 257.18C177.83 248.92 176.73 240.98 175.73 232.83C175.589 231.467 174.994 230.191 174.04 229.208C173.086 228.225 171.828 227.591 170.47 227.41L129.16 222.69C122.16 221.89 115.08 221.06 108.6 218.21C102.12 215.36 96.22 210.21 94.08 203.21C91.79 195.76 94 187.51 92.24 179.91C102.68 177.91 111.7 175.75 122.24 174.12C128.24 173.2 134.34 172.35 140.18 173.86C144.68 175.03 148.74 177.55 152.72 180.03C166.64 188.69 180.56 197.36 193.92 206.93C195.92 208.34 197.92 209.88 198.92 212.15C199.92 214.42 199.71 216.72 199.85 219.06C200.23 225.52 204.17 247.84 204.09 252.77C203.91 264.083 204.858 275.385 206.92 286.51C207.825 291.062 208.054 295.722 207.6 300.34V300.34Z" fill="#3D4281"/>
<path id="Vector_7" d="M248.96 292.54C248.96 292.54 248.96 299.01 249.67 302.02C250.38 305.03 241.77 309.86 241.77 309.86L234.15 303.53C234.628 299.884 234.819 296.206 234.72 292.53C234.44 288.02 248.96 292.54 248.96 292.54Z" fill="#E88A76"/>
<path id="Vector_8" d="M235.37 321.38C237.806 321.899 240.313 321.991 242.78 321.65C243.683 321.475 244.61 321.455 245.52 321.59C245.741 320.968 246.147 320.428 246.683 320.042C247.219 319.656 247.86 319.443 248.52 319.43C249.176 319.451 249.822 319.606 250.417 319.884C251.011 320.163 251.543 320.559 251.98 321.05C252.388 321.597 252.901 322.056 253.49 322.4C253.956 322.557 254.45 322.615 254.94 322.57L272.17 322.18C273.33 322.18 274.66 322.05 275.36 321.08C275.793 320.323 275.972 319.446 275.87 318.58C275.995 316.942 275.595 315.306 274.73 313.91C273.5 312.28 271.27 312.26 269.36 311.68C267.45 311.1 265.72 310.17 263.71 309.52C261.427 308.731 259.341 307.457 257.596 305.786C255.851 304.115 254.488 302.087 253.6 299.84C253.398 299.08 252.993 298.389 252.43 297.84C251.54 297.19 250.33 297.49 249.31 297.84C248.064 298.315 246.854 298.88 245.69 299.53C244.89 299.98 243.99 300.69 244.09 301.64C244.22 302.87 246 303.76 245.47 304.87C245.17 305.51 244.32 305.55 243.65 305.47C240.22 305.077 236.879 304.12 233.76 302.64C233.49 304.219 233.36 305.818 233.37 307.42L233.82 317.66C233.973 319.022 234.511 320.312 235.37 321.38Z" fill="#1A1D3E"/>
<path id="Vector_9" d="M252.41 293.14C250.67 294.88 248.18 295.47 245.79 295.79C239.51 296.67 233.114 296.182 227.04 294.36C222.74 286 224.58 275.84 224.67 266.36C224.609 260.883 224.231 255.414 223.54 249.98C222.64 241.72 221.54 233.78 220.54 225.63C220.398 224.268 219.802 222.993 218.848 222.01C217.894 221.027 216.637 220.393 215.28 220.21L174.03 215.49C167.03 214.69 159.95 213.86 153.47 211.02C146.99 208.18 141.09 203.02 138.94 195.97C136.66 188.52 138.87 180.27 137.11 172.67C147.55 170.67 156.57 168.51 167.06 166.89C173.06 165.96 179.15 165.11 185 166.63C189.5 167.8 176.41 171 180.4 173.48C194.31 182.14 224.53 187.85 238.74 199.69C247.74 207.21 249 240.6 248.92 245.53C248.731 256.846 249.679 268.153 251.75 279.28C252.49 283.36 253.02 289.03 252.41 293.14Z" fill="#3D4281"/>
<path id="Vector_10" d="M205.73 40L194.51 103.13C194.261 104.357 194.28 105.624 194.565 106.844C194.851 108.063 195.396 109.207 196.164 110.196C196.932 111.186 197.905 111.997 199.016 112.576C200.126 113.155 201.349 113.487 202.6 113.55L304.8 115.92C306.793 115.933 308.727 115.245 310.264 113.976C311.802 112.708 312.844 110.939 313.21 108.98L326.84 43.14C327.98 37.64 323.97 32.44 318.59 32.46L213.99 32.8C211.986 32.837 210.06 33.5792 208.549 34.896C207.038 36.2128 206.04 38.0201 205.73 40Z" stroke="#C9C9E2" stroke-width="1.36" stroke-miterlimit="10"/>
<path id="Vector_11" d="M198.6 34.47L187.38 97.6C187.133 98.8271 187.153 100.093 187.438 101.312C187.724 102.53 188.268 103.673 189.035 104.663C189.801 105.652 190.772 106.465 191.881 107.046C192.989 107.627 194.21 107.963 195.46 108.03L297.6 110.4C299.593 110.411 301.526 109.722 303.062 108.454C304.599 107.186 305.642 105.418 306.01 103.46L319.64 37.62C320.78 32.11 316.77 26.92 311.4 26.93L206.79 27.27C204.8 27.329 202.893 28.0805 201.398 29.3949C199.903 30.7092 198.913 32.5041 198.6 34.47V34.47Z" fill="black"/>
<path id="Vector_12" d="M213.47 38.05C214.657 37.8921 215.853 37.7986 217.05 37.77C218.25 37.77 219.45 37.77 220.65 37.69C221.19 37.69 221.38 36.84 220.78 36.69C219.579 36.4286 218.347 36.331 217.12 36.4C215.899 36.4316 214.681 36.5284 213.47 36.69C213.291 36.695 213.121 36.7683 212.995 36.8947C212.868 37.0212 212.795 37.1912 212.79 37.37C212.79 37.7 213.1 38.1 213.47 38.05V38.05Z" fill="#909C90"/>
<path id="Vector_13" d="M225.48 37.33C228.1 37.11 230.74 37 233.38 37C234.7 37 236.02 37 237.38 37.06C238.694 37.1648 240.013 37.1949 241.33 37.15C241.74 37.15 241.88 36.5 241.44 36.4C240.186 36.1467 238.909 36.0228 237.63 36.03C236.27 35.97 234.91 35.94 233.55 35.96C230.87 36.01 228.19 36.18 225.55 36.46C225 36.52 224.98 37.38 225.55 37.33H225.48Z" fill="#909C90"/>
<path id="Vector_14" d="M249.2 36.87C251.94 36.81 254.68 36.87 257.42 36.87C258.77 36.87 260.13 36.94 261.48 37.01C262.81 37.1381 264.15 37.1381 265.48 37.01C265.9 36.95 265.85 36.32 265.48 36.21C264.197 35.9217 262.885 35.7875 261.57 35.81C260.18 35.81 258.79 35.74 257.39 35.73C254.65 35.73 251.91 35.81 249.17 35.95C249.048 35.95 248.931 35.9985 248.845 36.0847C248.758 36.171 248.71 36.288 248.71 36.41C248.71 36.532 248.758 36.649 248.845 36.7353C248.931 36.8215 249.048 36.87 249.17 36.87H249.2Z" fill="#909C90"/>
<path id="Vector_15" d="M271.04 36.2L282.21 36.33C284.03 36.33 285.86 36.39 287.68 36.4H290.41C291.23 36.4 292.47 36.57 293.17 36.08C293.26 36.0309 293.335 35.9586 293.387 35.8706C293.439 35.7826 293.466 35.6823 293.466 35.58C293.466 35.4778 293.439 35.3774 293.387 35.2894C293.335 35.2014 293.26 35.1291 293.17 35.08C292.334 34.7413 291.423 34.6309 290.53 34.76H287.8C285.94 34.76 284.08 34.81 282.21 34.83L271.04 34.96C270.876 34.96 270.718 35.0253 270.602 35.1416C270.485 35.2579 270.42 35.4156 270.42 35.58C270.42 35.7445 270.485 35.9021 270.602 36.0184C270.718 36.1347 270.876 36.2 271.04 36.2Z" fill="#909C90"/>
<path id="Vector_16" d="M206.25 50.79C209.937 50.8967 213.627 50.9167 217.32 50.85C219.14 50.85 220.96 50.73 222.78 50.63C224.612 50.6319 226.437 50.4205 228.22 50C228.317 49.9781 228.402 49.9209 228.459 49.8395C228.517 49.758 228.541 49.6583 228.529 49.5596C228.516 49.461 228.467 49.3705 228.392 49.3059C228.316 49.2412 228.219 49.207 228.12 49.21C226.301 49.075 224.474 49.1051 222.66 49.3C220.84 49.38 219.01 49.44 217.19 49.5C213.55 49.6 209.903 49.6 206.25 49.5C205.44 49.5 205.45 50.73 206.25 50.76V50.79Z" fill="#909C90"/>
<path id="Vector_17" d="M233.37 49.86C233.385 49.8543 233.399 49.8441 233.408 49.8307C233.417 49.8173 233.422 49.8013 233.422 49.785C233.422 49.7687 233.417 49.7527 233.408 49.7393C233.399 49.7259 233.385 49.7157 233.37 49.71C233.355 49.7157 233.341 49.7259 233.332 49.7393C233.323 49.7527 233.318 49.7687 233.318 49.785C233.318 49.8013 233.323 49.8173 233.332 49.8307C233.341 49.8441 233.355 49.8543 233.37 49.86V49.86Z" fill="#909C90"/>
<path id="Vector_18" d="M233 50.48H235C235.333 50.4999 235.667 50.4999 236 50.48C236.35 50.43 236.86 50.36 237.07 50.03C237.11 49.9708 237.131 49.9012 237.131 49.83C237.131 49.7588 237.11 49.6892 237.07 49.63C236.86 49.29 236.35 49.23 236 49.18C235.65 49.13 235.33 49.18 235 49.18H233C232.817 49.18 232.642 49.2527 232.512 49.3821C232.383 49.5115 232.31 49.687 232.31 49.87C232.31 50.053 232.383 50.2285 232.512 50.3579C232.642 50.4873 232.817 50.56 233 50.56V50.48Z" fill="#909C90"/>
<path id="Vector_19" d="M240.17 49.85C250.11 50.08 260.04 50.03 269.98 49.95L277.75 49.88C277.922 49.88 278.088 49.8115 278.21 49.6896C278.332 49.5677 278.4 49.4024 278.4 49.23C278.4 49.0576 278.332 48.8923 278.21 48.7704C278.088 48.6485 277.922 48.58 277.75 48.58C268.123 48.7067 258.49 48.7267 248.85 48.64C245.96 48.64 243.06 48.56 240.17 48.49C239.99 48.49 239.817 48.5617 239.689 48.6892C239.562 48.8167 239.49 48.9897 239.49 49.17C239.49 49.3504 239.562 49.5233 239.689 49.6508C239.817 49.7784 239.99 49.85 240.17 49.85V49.85Z" fill="#909C90"/>
<path id="Vector_20" d="M208.5 61.28C209.98 61.28 211.5 61.28 212.92 61.16C214.409 61.1409 215.892 60.9801 217.35 60.68C218.1 60.49 217.85 59.51 217.18 59.43C215.703 59.325 214.219 59.3652 212.75 59.55C211.27 59.65 209.8 59.8 208.33 60.01C207.59 60.11 207.79 61.27 208.5 61.28V61.28Z" fill="#909C90"/>
<path id="Vector_21" d="M206.81 68.91C208.88 68.62 210.96 68.75 213.03 68.52C213.16 68.5187 213.285 68.4705 213.383 68.3843C213.48 68.2981 213.543 68.1796 213.56 68.0507C213.577 67.9218 213.547 67.7911 213.475 67.6826C213.404 67.5741 213.295 67.495 213.17 67.46C210.945 66.9549 208.635 66.9549 206.41 67.46C206.217 67.5137 206.053 67.6417 205.953 67.8159C205.854 67.99 205.828 68.1964 205.88 68.39C205.94 68.5789 206.069 68.7383 206.242 68.8365C206.414 68.9347 206.617 68.9645 206.81 68.92V68.91Z" fill="#909C90"/>
<path id="Vector_22" d="M217.93 69.11H219.5C219.755 69.0982 220.008 69.0715 220.26 69.03C220.425 69.0073 220.589 68.9739 220.75 68.93C220.898 68.8808 221.037 68.8063 221.16 68.71C221.222 68.6714 221.273 68.6176 221.309 68.5537C221.344 68.4899 221.363 68.418 221.363 68.345C221.363 68.272 221.344 68.2001 221.309 68.1363C221.273 68.0724 221.222 68.0186 221.16 67.98C221.038 67.8817 220.899 67.807 220.75 67.76C220.599 67.7195 220.445 67.6894 220.29 67.67C220.029 67.6252 219.765 67.5952 219.5 67.58H217.93C217.821 67.5676 217.71 67.5784 217.606 67.6116C217.501 67.6449 217.404 67.7 217.322 67.7731C217.24 67.8463 217.175 67.9359 217.13 68.0362C217.085 68.1365 217.062 68.2451 217.062 68.355C217.062 68.4649 217.085 68.5735 217.13 68.6738C217.175 68.7741 217.24 68.8637 217.322 68.9369C217.404 69.0101 217.501 69.0651 217.606 69.0984C217.71 69.1316 217.821 69.1424 217.93 69.13V69.11Z" fill="#909C90"/>
<path id="Vector_23" d="M225.69 69.17C226.807 68.8804 227.957 68.7392 229.11 68.75C230.28 68.75 231.44 68.84 232.62 68.88C232.74 68.8835 232.858 68.8462 232.954 68.7742C233.05 68.7022 233.118 68.5997 233.148 68.4836C233.179 68.3674 233.169 68.2445 233.12 68.1348C233.071 68.0252 232.986 67.9354 232.88 67.88C230.56 66.68 227.7 66.88 225.23 67.45C225.026 67.5278 224.858 67.6787 224.759 67.8734C224.66 68.0681 224.637 68.2927 224.694 68.5034C224.752 68.7142 224.885 68.896 225.069 69.0137C225.253 69.1314 225.475 69.1764 225.69 69.14V69.17Z" fill="#909C90"/>
<path id="Vector_24" d="M239.78 68.07C243.25 68.21 246.72 68.35 250.2 68.43L255.28 68.55L257.89 68.61C258.719 68.7539 259.572 68.6603 260.35 68.34C260.421 68.2985 260.479 68.2393 260.52 68.1682C260.56 68.0972 260.582 68.0168 260.582 67.935C260.582 67.8532 260.56 67.7728 260.52 67.7018C260.479 67.6307 260.421 67.5715 260.35 67.53C259.623 67.1795 258.811 67.0442 258.01 67.14L255.41 67.07L250.2 66.93C246.73 66.84 243.2 66.79 239.78 66.75C239.605 66.75 239.437 66.8195 239.313 66.9433C239.19 67.0671 239.12 67.235 239.12 67.41C239.12 67.585 239.19 67.7529 239.313 67.8767C239.437 68.0005 239.605 68.07 239.78 68.07V68.07Z" fill="#909C90"/>
<path id="Vector_25" d="M265.4 67.82L269.7 67.69L271.81 67.63C272.548 67.6712 273.282 67.4938 273.92 67.12C273.99 67.0759 274.048 67.0147 274.088 66.9421C274.128 66.8695 274.149 66.788 274.149 66.705C274.149 66.6221 274.128 66.5405 274.088 66.4679C274.048 66.3953 273.99 66.3341 273.92 66.29C273.308 65.9593 272.613 65.8167 271.92 65.88L269.73 65.95L265.43 66.07C265.214 66.0931 265.014 66.1953 264.869 66.3568C264.724 66.5184 264.644 66.7278 264.644 66.945C264.644 67.1622 264.724 67.3717 264.869 67.5332C265.014 67.6947 265.214 67.7969 265.43 67.82H265.4Z" fill="#909C90"/>
<path id="Vector_26" d="M277.07 67.9L280.91 67.99C281.55 67.99 282.19 67.99 282.83 67.99C283.506 68.0584 284.189 67.9764 284.83 67.75C284.938 67.6863 285.027 67.5957 285.089 67.487C285.151 67.3782 285.184 67.2552 285.184 67.13C285.184 67.0048 285.151 66.8818 285.089 66.773C285.027 66.6643 284.938 66.5737 284.83 66.51C284.19 66.2819 283.506 66.2032 282.83 66.28C282.19 66.28 281.55 66.28 280.91 66.28L277.07 66.38C276.887 66.4012 276.719 66.4888 276.596 66.6262C276.474 66.7635 276.406 66.941 276.406 67.125C276.406 67.3089 276.474 67.4865 276.596 67.6238C276.719 67.7612 276.887 67.8488 277.07 67.87V67.9Z" fill="#909C90"/>
<path id="Vector_27" d="M202.49 77.89C204.426 77.7555 206.372 77.8935 208.27 78.3C208.506 78.365 208.758 78.3335 208.971 78.2126C209.184 78.0916 209.34 77.891 209.405 77.655C209.47 77.419 209.439 77.1668 209.318 76.9539C209.197 76.7411 208.996 76.585 208.76 76.52C206.698 76.1027 204.587 75.9781 202.49 76.15C202.259 76.1525 202.038 76.2447 201.874 76.4071C201.71 76.5694 201.615 76.7892 201.61 77.02C201.613 77.2516 201.706 77.4729 201.871 77.6358C202.036 77.7987 202.258 77.89 202.49 77.89V77.89Z" fill="#909C90"/>
<path id="Vector_28" d="M205.12 86.88C208.64 86.88 212.12 86.99 215.67 86.99H223.48C224.269 87.1172 225.077 86.9305 225.73 86.47C225.797 86.3979 225.834 86.3033 225.834 86.205C225.834 86.1067 225.797 86.0121 225.73 85.94C225.078 85.4759 224.27 85.2857 223.48 85.41H215.67C212.15 85.41 208.67 85.41 205.12 85.49C204.934 85.49 204.756 85.5638 204.625 85.695C204.494 85.8263 204.42 86.0043 204.42 86.19C204.42 86.3756 204.494 86.5537 204.625 86.685C204.756 86.8162 204.934 86.89 205.12 86.89V86.88Z" fill="#909C90"/>
<path id="Vector_29" d="M229.46 86.52C229.845 86.41 230.236 86.3199 230.63 86.25H230.89H231L231.6 86.19C231.98 86.19 232.35 86.19 232.72 86.13L233.32 86.08C233.568 86.0518 233.807 85.9698 234.02 85.84C234.092 85.7984 234.153 85.7409 234.199 85.6719C234.245 85.603 234.274 85.5243 234.285 85.4422C234.295 85.36 234.287 85.2764 234.26 85.198C234.233 85.1196 234.189 85.0484 234.13 84.99C233.959 84.8218 233.75 84.6981 233.52 84.63C232.862 84.4968 232.188 84.4631 231.52 84.53C230.659 84.5977 229.806 84.7416 228.97 84.96C228.762 85.0187 228.584 85.1554 228.474 85.3417C228.365 85.5279 228.331 85.7494 228.38 85.96C228.443 86.1655 228.58 86.34 228.765 86.4492C228.95 86.5584 229.17 86.5944 229.38 86.55L229.46 86.52Z" fill="#909C90"/>
<path id="Vector_30" d="M230.36 86.42H233.14C233.591 86.4269 234.042 86.4035 234.49 86.35C234.91 86.3 235.68 86.27 235.68 85.68C235.68 85.09 234.91 85.06 234.49 85.01C234.042 84.9565 233.591 84.9331 233.14 84.94H230.36C230.169 84.94 229.986 85.0159 229.851 85.1509C229.716 85.2859 229.64 85.4691 229.64 85.66C229.64 85.851 229.716 86.0341 229.851 86.1691C229.986 86.3042 230.169 86.38 230.36 86.38V86.42Z" fill="#909C90"/>
<path id="Vector_31" d="M241.28 86.13C248.67 86.36 256.08 86.23 263.48 86.25C270.88 86.27 278.28 86.38 285.68 86.57C287.76 86.62 289.83 86.68 291.91 86.75C293.986 86.9047 296.069 86.9548 298.15 86.9C298.88 86.9 299.15 85.65 298.33 85.52C296.447 85.3148 294.554 85.2146 292.66 85.22L287.17 85.04C283.48 84.93 279.78 84.83 276.08 84.76C268.64 84.6 261.19 84.48 253.75 84.55C249.59 84.6 245.43 84.65 241.28 84.91C241.118 84.91 240.963 84.9743 240.849 85.0887C240.734 85.2031 240.67 85.3582 240.67 85.52C240.67 85.6818 240.734 85.8369 240.849 85.9513C240.963 86.0657 241.118 86.13 241.28 86.13V86.13Z" fill="#909C90"/>
<g id="code">
<path id="Vector_32" d="M197.6 98.79C206.933 98.79 216.297 98.6467 225.69 98.36L229.54 98.25C230.883 98.2935 232.225 98.176 233.54 97.9C233.664 97.8631 233.772 97.7872 233.85 97.6836C233.927 97.58 233.969 97.4542 233.969 97.325C233.969 97.1958 233.927 97.07 233.85 96.9664C233.772 96.8628 233.664 96.7869 233.54 96.75C232.999 96.627 232.445 96.5732 231.89 96.59L230.15 96.65L226.67 96.75L219.59 96.92C214.923 97.02 210.24 97.0867 205.54 97.12H197.59C197.373 97.12 197.164 97.2064 197.01 97.3602C196.856 97.5139 196.77 97.7225 196.77 97.94C196.77 98.1575 196.856 98.3661 197.01 98.5198C197.164 98.6736 197.373 98.76 197.59 98.76L197.6 98.79Z" fill="#909C90"/>
<path id="Vector_33" d="M237.89 97.94H241.35C241.927 97.9535 242.505 97.9368 243.08 97.89C243.664 97.8937 244.244 97.7885 244.79 97.58C244.86 97.5347 244.918 97.4725 244.958 97.3991C244.998 97.3258 245.019 97.2436 245.019 97.16C245.019 97.0765 244.998 96.9943 244.958 96.9209C244.918 96.8475 244.86 96.7853 244.79 96.74C244.243 96.5354 243.664 96.4304 243.08 96.43C242.504 96.3999 241.926 96.3999 241.35 96.43H237.89C237.695 96.452 237.514 96.5452 237.383 96.6918C237.252 96.8385 237.179 97.0283 237.179 97.225C237.179 97.4217 237.252 97.6115 237.383 97.7582C237.514 97.9048 237.695 97.998 237.89 98.02V97.94Z" fill="#909C90"/>
<path id="Vector_34" d="M248.83 98.33C253.93 98.6834 259.037 98.81 264.15 98.71C266.7 98.71 269.26 98.56 271.81 98.42L275.51 98.18L277.51 98.03C278.15 97.97 278.84 97.83 279.51 97.83L278.95 97.6L279.07 97.71C279.211 97.8311 279.382 97.9106 279.566 97.9397C279.749 97.9688 279.937 97.9463 280.108 97.8746C280.279 97.803 280.427 97.6851 280.535 97.5342C280.643 97.3832 280.707 97.2052 280.72 97.02C280.72 96.25 279.62 95.65 279.07 96.34C278.807 96.3254 278.543 96.3254 278.28 96.34L277.28 96.43L275.28 96.59C274.05 96.69 272.81 96.77 271.58 96.84C269.07 96.99 266.58 97.08 264.05 97.14C258.99 97.25 253.91 97.14 248.85 96.98C247.98 96.98 248 98.27 248.85 98.32L248.83 98.33Z" fill="#909C90"/>
</g>
<path id="Vector_35" d="M285.15 3.14001L352.6 4.45001C353.295 4.48163 353.975 4.66011 354.595 4.97372C355.216 5.28734 355.763 5.72895 356.201 6.26944C356.638 6.80993 356.956 7.43704 357.133 8.10938C357.311 8.78171 357.344 9.48403 357.23 10.17L356.06 18.47C355.924 19.638 355.366 20.7161 354.492 21.5022C353.617 22.2883 352.486 22.7284 351.31 22.74L283.71 22.22C283.007 22.1947 282.317 22.019 281.687 21.7049C281.057 21.3908 280.502 20.9454 280.058 20.3988C279.615 19.8521 279.294 19.2169 279.117 18.5358C278.939 17.8547 278.91 17.1435 279.03 16.45L280.38 7.36002C280.53 6.19857 281.096 5.13089 281.973 4.35492C282.85 3.57895 283.979 3.14731 285.15 3.14001Z" stroke="#C9C9E2" stroke-width="1.36" stroke-miterlimit="10"/>
<path id="Vector_36" d="M206.15 6.76001L205.78 9.10001C205.617 9.98962 205.645 10.9039 205.863 11.7816C206.082 12.6594 206.485 13.4803 207.047 14.1895C207.608 14.8986 208.315 15.4797 209.119 15.8937C209.923 16.3077 210.807 16.5451 211.71 16.59L261.04 17.59C262.613 17.5871 264.126 16.9915 265.279 15.9221C266.432 14.8526 267.139 13.3879 267.26 11.82L267.54 8.95001C267.647 8.08461 267.574 7.20638 267.325 6.37076C267.075 5.53514 266.655 4.76025 266.092 4.095C265.528 3.42975 264.832 2.88857 264.049 2.50562C263.266 2.12266 262.411 1.90623 261.54 1.87L212.3 1.39001C210.8 1.39492 209.353 1.94069 208.223 2.92715C207.093 3.91362 206.357 5.27455 206.15 6.76001V6.76001Z" stroke="#E4E5F3" stroke-width="1.1" stroke-miterlimit="10"/>
<path id="Vector_37" d="M282.34 0L349.76 1.31C350.455 1.34455 351.134 1.52534 351.754 1.84055C352.374 2.15575 352.92 2.59825 353.357 3.13913C353.794 3.68001 354.112 4.30707 354.29 4.97928C354.468 5.65149 354.502 6.35372 354.39 7.04001L353.22 15.34C353.079 16.508 352.519 17.585 351.643 18.3706C350.768 19.1561 349.636 19.5966 348.46 19.61L280.86 19.09C280.157 19.0631 279.468 18.8864 278.839 18.5717C278.21 18.2571 277.656 17.8117 277.213 17.2655C276.769 16.7193 276.448 16.0847 276.27 15.4043C276.092 14.7238 276.061 14.0133 276.18 13.32L277.54 4.23001C277.691 3.06251 278.26 1.98956 279.144 1.21127C280.027 0.432986 281.163 0.00247793 282.34 0Z" fill="black"/>
<path id="Vector_38" d="M286.99 6.48001L290.39 6.75C290.94 6.75 291.5 6.86 292.05 6.87C292.574 6.94094 293.107 6.87905 293.6 6.69C293.627 6.66846 293.649 6.64109 293.664 6.60992C293.679 6.57876 293.687 6.54461 293.687 6.51001C293.687 6.47541 293.679 6.44123 293.664 6.41006C293.649 6.3789 293.627 6.35156 293.6 6.33002C293.121 6.06219 292.578 5.93075 292.03 5.95001C291.48 5.88001 290.92 5.86001 290.36 5.82001L286.9 5.60001C286.36 5.60001 286.37 6.4 286.9 6.44L286.99 6.48001Z" fill="#98B6CE"/>
<path id="Vector_39" d="M295.87 6.98998C296.333 7.06348 296.801 7.10691 297.27 7.11999C297.515 7.10974 297.76 7.07964 298 7.02999C298.135 7.0167 298.268 6.97947 298.39 6.92L298.66 6.76998C298.719 6.73308 298.765 6.68007 298.795 6.61727C298.824 6.55447 298.834 6.48456 298.825 6.41595C298.815 6.34733 298.786 6.28289 298.741 6.2304C298.696 6.1779 298.636 6.13957 298.57 6.11999L298.27 6.05999C298.151 6.04482 298.03 6.04482 297.91 6.05999C297.7 6.05999 297.48 6.05999 297.27 6.05999C296.847 6.08989 296.423 6.08989 296 6.05999C295.888 6.06112 295.781 6.10201 295.696 6.17531C295.612 6.24861 295.557 6.34952 295.54 6.45998C295.524 6.57057 295.548 6.68335 295.609 6.77721C295.67 6.87107 295.762 6.9396 295.87 6.96999V6.98998Z" fill="#98B6CE"/>
<path id="Vector_40" d="M301.46 6.89001C304.23 6.94001 306.98 6.89001 309.75 6.89001C311.1 6.89001 312.46 6.89001 313.81 6.95001C314.51 6.95001 315.21 7.00999 315.9 7.04999C316.565 7.14406 317.241 7.12717 317.9 7C317.952 6.9834 317.999 6.95223 318.034 6.91013C318.07 6.86802 318.093 6.81672 318.1 6.76221C318.107 6.70769 318.099 6.6522 318.076 6.60223C318.053 6.55227 318.016 6.50988 317.97 6.48001C316.738 6.06611 315.436 5.89957 314.14 5.98999C312.71 5.91999 311.27 5.90001 309.83 5.89001C307.02 5.89001 304.23 5.95002 301.42 6.11002C301.324 6.12522 301.236 6.17438 301.172 6.24863C301.109 6.32288 301.074 6.41734 301.074 6.51501C301.074 6.61269 301.109 6.70715 301.172 6.7814C301.236 6.85565 301.324 6.90481 301.42 6.92001L301.46 6.89001Z" fill="#98B6CE"/>
<path id="Vector_41" d="M321.23 6.84C322.604 6.99987 323.992 7.01997 325.37 6.89999C325.67 6.89999 325.64 6.39001 325.37 6.32001C324.006 6.05632 322.619 5.93235 321.23 5.95001C321.166 5.94039 321.101 5.94467 321.038 5.96262C320.976 5.98056 320.919 6.01174 320.87 6.05399C320.82 6.09623 320.781 6.14854 320.754 6.2074C320.727 6.26625 320.713 6.33024 320.713 6.39499C320.713 6.45974 320.727 6.52373 320.754 6.58258C320.781 6.64144 320.82 6.69378 320.87 6.73602C320.919 6.77827 320.976 6.80945 321.038 6.82739C321.101 6.84534 321.166 6.84962 321.23 6.84V6.84Z" fill="#98B6CE"/>
<path id="Vector_42" d="M328.65 6.95999C331.2 6.83999 333.76 6.84999 336.31 6.95999C337.57 6.95999 338.82 7.08 340.08 7.19C340.72 7.19 341.37 7.31 342.01 7.38C342.547 7.50198 343.107 7.46019 343.62 7.26001C343.662 7.2357 343.698 7.20207 343.725 7.16171C343.753 7.12135 343.77 7.07531 343.777 7.0271C343.784 6.97888 343.78 6.92977 343.764 6.88348C343.749 6.83719 343.724 6.79496 343.69 6.76001C343.274 6.45837 342.774 6.29407 342.26 6.29C341.61 6.21 340.96 6.16001 340.32 6.11001C339.03 6.00001 337.73 5.93001 336.43 5.89001C333.834 5.82661 331.236 5.9134 328.65 6.14999C328.13 6.19999 328.12 7.00001 328.65 6.98001V6.95999Z" fill="#98B6CE"/>
<path id="Vector_43" d="M286.74 13.4C287.666 13.1769 288.623 13.1126 289.57 13.21L292.57 13.29L298.38 13.46L304.18 13.63L307.18 13.71C307.96 13.71 309.18 14 309.84 13.53C309.896 13.4961 309.942 13.4484 309.974 13.3915C310.006 13.3346 310.023 13.2704 310.023 13.205C310.023 13.1397 310.006 13.0754 309.974 13.0185C309.942 12.9616 309.896 12.9139 309.84 12.88C309.19 12.38 307.96 12.58 307.18 12.56L304.18 12.49L298.13 12.34L292.2 12.19C290.35 12.14 288.31 11.87 286.52 12.49C286.46 12.5071 286.404 12.5357 286.356 12.5744C286.307 12.613 286.267 12.6609 286.236 12.7152C286.206 12.7695 286.187 12.8293 286.18 12.891C286.173 12.9527 286.178 13.0153 286.195 13.075C286.212 13.1348 286.241 13.1906 286.279 13.2392C286.318 13.2879 286.366 13.3285 286.42 13.3587C286.475 13.3889 286.534 13.408 286.596 13.4151C286.658 13.4222 286.72 13.4171 286.78 13.4H286.74Z" fill="#98B6CE"/>
<path id="Vector_44" d="M312.6 13.56C313.3 13.56 314 13.56 314.7 13.56C315.07 13.56 315.43 13.5 315.8 13.45C315.991 13.4513 316.18 13.4098 316.353 13.3285C316.526 13.2471 316.679 13.1281 316.8 12.98C316.846 12.9217 316.871 12.8494 316.871 12.775C316.871 12.7006 316.846 12.6283 316.8 12.57C316.645 12.4645 316.471 12.3908 316.287 12.353C316.103 12.3152 315.914 12.3142 315.73 12.35C315.397 12.35 315.063 12.37 314.73 12.41C314.05 12.47 313.36 12.5 312.67 12.51C312.593 12.4879 312.511 12.4841 312.432 12.4988C312.353 12.5135 312.278 12.5464 312.214 12.5949C312.15 12.6434 312.098 12.7061 312.062 12.7781C312.026 12.8502 312.007 12.9295 312.007 13.01C312.007 13.0905 312.026 13.1699 312.062 13.2419C312.098 13.314 312.15 13.3767 312.214 13.4252C312.278 13.4736 312.353 13.5065 312.432 13.5212C312.511 13.5359 312.593 13.5321 312.67 13.51L312.6 13.56Z" fill="#98B6CE"/>
<path id="Vector_45" d="M320.52 13.27C324.69 13.49 328.85 13.6 333.02 13.69L339.21 13.83C340.21 13.83 341.27 13.88 342.3 13.88C343.06 13.88 344.36 14.13 344.85 13.4C344.884 13.3426 344.903 13.2769 344.903 13.21C344.903 13.1431 344.884 13.0774 344.85 13.02C344.37 12.29 343.07 12.53 342.3 12.52C341.3 12.52 340.3 12.52 339.3 12.52C337.2 12.52 335.09 12.52 332.99 12.52C328.82 12.52 324.66 12.42 320.49 12.41C320.373 12.41 320.261 12.4564 320.179 12.5389C320.096 12.6214 320.05 12.7333 320.05 12.85C320.05 12.9667 320.096 13.0786 320.179 13.1611C320.261 13.2436 320.373 13.29 320.49 13.29L320.52 13.27Z" fill="#98B6CE"/>
<path id="Vector_46" d="M214.49 10.32C215.259 9.33057 216.18 8.46978 217.22 7.77C217.348 7.65964 217.498 7.5773 217.659 7.52827C217.821 7.47924 217.991 7.46464 218.159 7.48536C218.326 7.50609 218.488 7.56168 218.633 7.6486C218.778 7.73552 218.903 7.85181 219 7.99C219.48 8.46 219.94 8.99001 220.41 9.44001L221.82 10.89C222.217 11.3696 222.686 11.7846 223.21 12.12C223.562 12.2894 223.96 12.3391 224.342 12.2615C224.725 12.1839 225.072 11.9832 225.33 11.69C225.82 11.21 226.21 10.34 226.88 10.09C227.55 9.84001 228.36 10.74 228.88 11.09C229.185 11.352 229.562 11.516 229.961 11.5606C230.361 11.6052 230.765 11.5283 231.12 11.34C231.52 11.09 231.81 10.57 232.28 10.46C232.75 10.35 233.57 10.8 234.1 11.03C236.8 12.25 239.47 11.09 241.87 9.74C242.3 9.5 242.01 8.74002 241.52 8.91002C240.302 9.43546 239.041 9.85371 237.75 10.16C236.529 10.4247 235.254 10.2843 234.12 9.76002C233.07 9.30002 232.02 9.00001 231.06 9.81001C230.77 10.05 230.52 10.41 230.11 10.34C229.745 10.2128 229.406 10.0196 229.11 9.77C228.488 9.22311 227.677 8.9429 226.85 8.99C226.135 9.20569 225.519 9.6659 225.11 10.29C224.897 10.6063 224.622 10.8752 224.3 11.08C223.77 11.34 223.3 10.8 222.95 10.47L219.95 7.72001C219.547 7.27568 219.052 6.92424 218.5 6.69001C218.221 6.62777 217.933 6.62591 217.653 6.68455C217.374 6.7432 217.11 6.86099 216.88 7.03001C215.729 7.75922 214.714 8.68299 213.88 9.76002C213.54 10.18 214.13 10.76 214.47 10.35L214.49 10.32Z" fill="#98B6CE"/>
<path id="Vector_47" d="M112.38 65.46C108.742 65.8382 105.076 65.8817 101.43 65.59C97.7427 65.2855 94.2055 63.9936 91.19 61.85C90.19 62.19 89.71 63.85 89.62 65.02C89.4762 66.1069 89.0999 67.1502 88.5166 68.0786C87.9334 69.007 87.1568 69.7987 86.24 70.4C84.4284 71.5401 82.4925 72.4695 80.47 73.17C74.7355 75.534 69.4152 78.7984 64.71 82.84C60.66 86.32 59.12 92.06 58.16 97.46C55.1 114.66 59.68 132.25 64.55 148.98C66.2219 155.029 68.1978 160.99 70.47 166.84C71.62 169.7 72.97 172.59 75.21 174.63C77.3097 176.347 79.7606 177.583 82.39 178.25C97.5336 182.855 113.842 181.731 128.21 175.09C142.476 177.008 156.98 176.09 170.89 172.39C171.707 172.245 172.476 171.901 173.13 171.39C173.998 170.366 174.441 169.05 174.37 167.71C174.638 162.453 173.561 157.214 171.24 152.49C165.34 153.99 159.95 148.72 156.9 143.22C153.85 137.72 153.07 131.22 151.9 124.97C149.887 114.392 146.873 104.028 142.9 94.02C141.7 90.93 140.38 87.8 138.21 85.36C134.43 81.11 128.71 79.6 123.59 77.36C118.47 75.12 112.91 71.25 112.38 65.46Z" fill="#F7EAE3"/>
<path id="Vector_48" d="M68.93 91.06C70.7631 92.2271 72.3747 93.7101 73.69 95.44C74.37 96.29 75.01 97.19 75.62 98.1C76.23 99.01 76.76 99.95 77.43 100.78C77.54 100.91 77.71 100.78 77.65 100.62C77.1387 99.6223 76.5503 98.666 75.89 97.76C75.27 96.84 74.62 95.94 73.89 95.09C72.5441 93.3837 70.8927 91.9425 69.02 90.84C68.88 90.75 68.75 90.97 68.89 91.06H68.93Z" fill="#C9C4C0"/>
<path id="Vector_49" d="M77.66 103.84C79.8 108.48 80.4 113.74 81.3 118.72C82.26 124.093 83.26 129.45 84.3 134.79C84.58 136.26 84.86 137.73 85.15 139.2C85.44 140.67 85.71 142.31 86.15 143.82C86.22 144.04 86.58 144.01 86.56 143.77C86.243 141.061 85.7857 138.371 85.19 135.71C84.69 132.97 84.18 130.23 83.66 127.49C82.66 122.2 81.66 116.89 80.55 111.63C80.0132 108.868 79.1435 106.182 77.96 103.63C77.87 103.43 77.58 103.63 77.67 103.8L77.66 103.84Z" fill="#C9C4C0"/>
<path id="Vector_50" d="M86.36 144.12C87.3721 144.249 88.3226 144.678 89.09 145.35C89.7496 146.047 90.3206 146.823 90.79 147.66C91.2956 148.329 91.9933 148.828 92.79 149.09L94.46 149.76C94.9966 150.031 95.5641 150.236 96.15 150.37C96.198 150.377 96.2471 150.369 96.2897 150.345C96.3322 150.322 96.3658 150.285 96.3852 150.24C96.4046 150.196 96.4088 150.146 96.397 150.099C96.3852 150.052 96.3581 150.01 96.32 149.98C95.8384 149.692 95.325 149.46 94.79 149.29L93.11 148.62C92.5381 148.449 92.0072 148.164 91.55 147.78C91.2207 147.41 90.9385 147 90.71 146.56C90.2654 145.75 89.6362 145.057 88.8735 144.535C88.1108 144.014 87.236 143.68 86.32 143.56C85.99 143.56 85.99 144.04 86.32 144.08L86.36 144.12Z" fill="#C9C4C0"/>
<path id="Vector_51" d="M86.02 143.93C85.6096 144.239 85.2188 144.573 84.85 144.93C84.4699 145.281 84.1341 145.677 83.85 146.11C83.8358 146.141 83.8324 146.175 83.8403 146.208C83.8482 146.241 83.867 146.27 83.8937 146.291C83.9203 146.312 83.9532 146.323 83.987 146.323C84.0209 146.323 84.0536 146.311 84.08 146.29C84.7665 145.615 85.4946 144.984 86.26 144.4C86.3189 144.361 86.3609 144.301 86.3776 144.233C86.3943 144.164 86.3844 144.092 86.35 144.03C86.3126 143.969 86.2535 143.925 86.1848 143.907C86.1161 143.888 86.0428 143.896 85.98 143.93H86.02Z" fill="#C9C4C0"/>
<path id="Vector_52" d="M85.46 143.07C83.8748 143.488 82.3516 144.113 80.93 144.93C80.75 145.04 80.87 145.36 81.08 145.28C82.59 144.7 84.08 144.07 85.6 143.56C85.665 143.541 85.7199 143.498 85.7527 143.439C85.7856 143.38 85.7936 143.31 85.775 143.245C85.7564 143.18 85.7128 143.125 85.6537 143.092C85.5947 143.059 85.525 143.051 85.46 143.07V143.07Z" fill="#C9C4C0"/>
<path id="Vector_53" d="M98.09 151.02C102.27 153.09 106.8 154.02 111.32 155.02C113.605 155.467 115.859 156.059 118.07 156.79C120.23 157.55 122.23 158.92 122.66 161.31C122.72 161.65 123.3 161.57 123.27 161.23C122.95 157.49 119.03 156.15 115.94 155.37C112.18 154.37 108.32 153.89 104.56 152.92C102.389 152.41 100.277 151.672 98.26 150.72C98.06 150.63 97.89 150.92 98.09 151.01V151.02Z" fill="#C9C4C0"/>
<path id="Vector_54" d="M122.52 161.17C121.253 162.419 120.294 163.946 119.72 165.63C119.048 167.313 118.884 169.155 119.25 170.93C119.25 171.13 119.58 171.07 119.59 170.88C119.645 169.19 119.896 167.512 120.34 165.88C120.861 164.257 121.712 162.759 122.84 161.48C123.02 161.27 122.73 160.96 122.52 161.17Z" fill="#C9C4C0"/>
<path id="Vector_55" d="M122.81 161.81C123.774 162.366 124.831 162.742 125.93 162.92C126.461 163.013 127 163.057 127.54 163.05C128.089 163.097 128.64 163 129.14 162.77H128.94H129.12C129.179 162.786 129.241 162.787 129.301 162.771C129.36 162.756 129.414 162.725 129.458 162.682C129.501 162.639 129.533 162.586 129.55 162.527C129.566 162.468 129.567 162.406 129.552 162.346C129.537 162.287 129.506 162.233 129.464 162.189C129.421 162.145 129.367 162.113 129.309 162.096C129.25 162.079 129.187 162.078 129.128 162.093C129.069 162.107 129.014 162.138 128.97 162.18L128.83 162.29L129.08 162.23C128.832 162.185 128.578 162.185 128.33 162.23C128.07 162.23 127.81 162.23 127.54 162.28C127.045 162.282 126.55 162.248 126.06 162.18C125.038 162.025 124.052 161.686 123.15 161.18C122.78 160.97 122.44 161.55 122.81 161.76V161.81Z" fill="#C9C4C0"/>
<path id="Vector_56" d="M119 172.69C119.01 173.633 119.182 174.566 119.51 175.45C119.831 176.312 120.32 177.1 120.95 177.77C121.05 177.88 121.25 177.77 121.15 177.61C120.049 176.198 119.413 174.479 119.33 172.69C119.336 172.665 119.337 172.639 119.331 172.614C119.326 172.588 119.315 172.565 119.299 172.544C119.283 172.524 119.263 172.508 119.239 172.496C119.216 172.485 119.191 172.479 119.165 172.479C119.139 172.479 119.114 172.485 119.091 172.496C119.067 172.508 119.047 172.524 119.031 172.544C119.015 172.565 119.004 172.588 118.999 172.614C118.993 172.639 118.994 172.665 119 172.69V172.69Z" fill="#C9C4C0"/>
<path id="Vector_57" d="M133.87 103.79C135.13 109.46 136.43 115.12 137.66 120.79C138.292 123.619 138.747 126.484 139.02 129.37C139.28 132.2 139.35 135.03 139.56 137.86C139.937 143.164 140.944 148.404 142.56 153.47C143.845 157.713 145.723 161.753 148.14 165.47C150.73 169.32 154.21 172.98 158.6 174.72C158.75 174.78 158.85 174.53 158.71 174.46C154.961 172.392 151.722 169.512 149.23 166.03C146.726 162.386 144.766 158.398 143.41 154.19C141.703 149.179 140.648 143.97 140.27 138.69C140.08 135.9 140.05 133.11 139.89 130.32C139.724 127.602 139.366 124.898 138.82 122.23C137.57 115.99 135.91 109.81 134.42 103.62C134.39 103.559 134.341 103.51 134.279 103.482C134.217 103.454 134.148 103.449 134.083 103.467C134.017 103.485 133.96 103.525 133.922 103.58C133.883 103.635 133.865 103.703 133.87 103.77V103.79Z" fill="#C9C4C0"/>
<path id="Vector_58" d="M46.24 136.95C53.3 149.13 69.9 163.13 82.46 168.57C96.02 174.44 107.98 185.57 116.08 198.34C120.86 205.88 123.79 214.52 128.08 222.39C132.37 230.26 138.47 237.68 146.78 240.16C156.95 243.16 160.69 257.93 157.97 268.63C155.25 279.33 146.76 287.63 137.14 292.25C127.52 296.87 116.81 298.25 106.27 298.99C85.82 300.49 63.46 299.33 47.69 285.62C33.88 273.62 28.04 254.56 22.99 236.53C20.28 226.87 17.59 216.9 18.62 206.89C19.37 199.66 22.03 192.81 24.62 186.08C29.38 173.97 37.95 146.74 46.24 136.95Z" fill="#A33327"/>
<path id="Vector_59" d="M153.02 167.45C149.71 165.26 145.74 163.91 141.88 164.56C138.7 165.1 135.81 167.21 132.59 167.17C131.71 167.17 130.82 167.09 129.94 167.02C129.9 167.511 129.83 167.998 129.73 168.48C129.288 170.384 128.652 172.237 127.83 174.01L127.64 174.38C128.42 174.54 129.2 174.73 129.95 174.96C132.65 175.75 135.35 176.78 138.15 176.67C140.25 176.58 142.31 175.84 144.42 175.86C146.98 175.86 149.42 177.05 151.92 177.5C155.331 178.102 158.844 177.418 161.78 175.58C159.197 172.529 156.255 169.799 153.02 167.45V167.45Z" fill="#F58D78"/>
<path id="Vector_60" d="M129.06 162.78C129.806 164.949 129.845 167.298 129.17 169.49C128.93 170.49 128.64 171.49 128.33 172.43C128.17 172.923 128 173.413 127.82 173.9C127.628 174.276 127.516 174.688 127.49 175.11C127.491 175.149 127.503 175.187 127.525 175.22C127.547 175.252 127.578 175.277 127.614 175.292C127.65 175.307 127.69 175.311 127.728 175.304C127.767 175.296 127.802 175.277 127.83 175.25C128.112 174.939 128.309 174.56 128.4 174.15C128.59 173.64 128.77 173.15 128.94 172.6C129.29 171.54 129.61 170.48 129.87 169.4C130.51 167.172 130.429 164.799 129.64 162.62C129.5 162.27 128.92 162.42 129.06 162.78Z" fill="#C9C4C0"/>
<path id="Vector_61" d="M141.22 181.22C149.96 183.887 158.567 186.967 167.04 190.46C171.333 192.22 175.577 194.083 179.77 196.05C183.806 197.751 187.69 199.792 191.38 202.15C193.309 203.465 194.999 205.098 196.38 206.98C197.652 208.807 198.552 210.866 199.03 213.04C199.03 213.082 199.047 213.123 199.077 213.153C199.107 213.183 199.148 213.2 199.19 213.2C199.232 213.2 199.273 213.183 199.303 213.153C199.333 213.123 199.35 213.082 199.35 213.04C199.22 209.21 196.59 205.65 193.77 203.26C190.38 200.4 186.27 198.55 182.3 196.65C173.86 192.65 165.25 189.027 156.47 185.78C151.483 183.953 146.443 182.26 141.35 180.7C140.99 180.59 140.84 181.15 141.2 181.26L141.22 181.22Z" fill="#1C1E3B"/>
<path id="Vector_62" d="M175.37 227.17C176.736 224.622 178.563 222.35 180.76 220.47C180.97 220.29 180.68 219.91 180.46 220.08C178.102 221.892 176.159 224.186 174.76 226.81C174.54 227.21 175.15 227.57 175.37 227.17V227.17Z" fill="#1C1E3B"/>
<path id="Vector_63" d="M175.69 229.59C177.198 228.477 178.976 227.787 180.84 227.59L180.56 227.1C179.956 227.889 179.249 228.596 178.46 229.2C177.661 229.765 176.833 230.289 175.98 230.77C175.914 230.798 175.861 230.851 175.834 230.917C175.807 230.984 175.807 231.059 175.835 231.125C175.863 231.191 175.916 231.244 175.982 231.271C176.049 231.298 176.124 231.298 176.19 231.27C177.17 230.924 178.078 230.402 178.87 229.73C179.683 229.066 180.423 228.319 181.08 227.5C181.23 227.29 181.16 226.91 180.84 226.93C179.85 226.983 178.874 227.178 177.94 227.51C177.003 227.858 176.118 228.332 175.31 228.92C174.92 229.21 175.31 229.87 175.69 229.58V229.59Z" fill="#1C1E3B"/>
<path id="Vector_64" d="M220.99 221.31C222.35 220.11 223.77 218.95 225.05 217.65C225.2 217.5 224.99 217.2 224.8 217.34C223.33 218.45 221.97 219.7 220.59 220.91C220.31 221.15 220.71 221.55 220.99 221.31V221.31Z" fill="#1C1E3B"/>
<path id="Vector_65" d="M221.6 223.28C222.499 222.946 223.451 222.777 224.41 222.78C225.369 222.815 226.322 222.956 227.25 223.2C227.326 223.223 227.408 223.216 227.48 223.182C227.551 223.147 227.608 223.087 227.638 223.014C227.667 222.94 227.669 222.858 227.642 222.783C227.614 222.709 227.56 222.647 227.49 222.61C226.542 222.144 225.505 221.886 224.45 221.855C223.394 221.824 222.344 222.02 221.37 222.43C220.84 222.63 221.07 223.48 221.6 223.28V223.28Z" fill="#1C1E3B"/>
<path id="Vector_66" d="M124.21 180.81L126.21 176.72C126.455 176.215 126.837 175.788 127.313 175.49C127.788 175.191 128.338 175.032 128.9 175.03H159.61L171.72 125.96C171.964 124.874 172.574 123.905 173.448 123.217C174.322 122.528 175.407 122.162 176.52 122.18L233.93 124.01C234.659 124.057 235.368 124.262 236.009 124.612C236.65 124.962 237.206 125.448 237.639 126.037C238.071 126.625 238.37 127.3 238.514 128.016C238.657 128.732 238.642 129.471 238.47 130.18L228.22 176.37C227.985 177.528 227.361 178.572 226.452 179.326C225.542 180.081 224.402 180.503 223.22 180.52L124.21 180.81Z" fill="black"/>
<path id="Vector_67" d="M207.23 134.46C206.495 134.097 205.66 133.988 204.856 134.151C204.053 134.314 203.326 134.739 202.79 135.36C202.21 136.038 201.813 136.854 201.638 137.73C201.463 138.605 201.515 139.511 201.79 140.36C202.041 141.156 202.554 141.844 203.246 142.311C203.938 142.777 204.768 142.996 205.6 142.93C206.477 142.837 207.289 142.424 207.88 141.77C208.535 140.982 208.905 139.995 208.93 138.97C208.986 137.975 208.783 136.983 208.34 136.09C207.903 135.248 207.228 134.553 206.4 134.09C205.8 133.73 205.34 134.72 206.02 134.98C206.592 135.267 207.06 135.725 207.36 136.29C207.713 136.901 207.922 137.586 207.97 138.29C208.095 139.021 207.965 139.774 207.6 140.42C207.236 141.067 206.66 141.568 205.97 141.84C205.364 142.015 204.715 141.964 204.143 141.698C203.571 141.431 203.116 140.967 202.86 140.39C202.592 139.767 202.476 139.09 202.521 138.414C202.567 137.737 202.772 137.081 203.12 136.5C203.473 135.859 204.048 135.369 204.736 135.122C205.425 134.875 206.18 134.889 206.86 135.16C207.29 135.37 207.67 134.74 207.24 134.51L207.23 134.46Z" fill="#4D2E2D"/>
<path id="Vector_68" d="M53.84 140.96C56.7 149.07 62.7 155.48 69.48 160.57C77.04 166.24 85.65 170.24 93.53 175.39C97.5726 177.966 101.316 180.985 104.69 184.39C107.899 187.727 110.761 191.383 113.23 195.3C115.72 199.24 117.941 203.342 119.88 207.58C121.66 211.43 123.21 215.37 124.93 219.25C127.93 226.06 131.69 233.56 138.48 237.32C139.277 237.762 140.11 238.137 140.97 238.44C141.33 238.57 141.59 237.97 141.23 237.81C133.94 234.71 129.74 227.88 126.51 220.98C124.8 217.3 123.35 213.51 121.73 209.79C119.899 205.537 117.805 201.402 115.46 197.41C110.893 189.45 104.739 182.513 97.38 177.03C89.72 171.47 81.11 167.45 73.24 162.23C66.13 157.52 59.44 151.59 55.68 143.79C55.21 142.79 54.79 141.79 54.42 140.79C54.29 140.42 53.7 140.58 53.84 140.95V140.96Z" fill="#CC842D"/>
<path id="Vector_69" d="M131.6 223.45C131.018 223.996 130.59 224.686 130.36 225.45C130.244 225.83 130.177 226.223 130.16 226.62C130.16 226.95 130.16 227.53 130.45 227.74C130.473 227.754 130.498 227.764 130.525 227.768C130.552 227.772 130.579 227.771 130.605 227.765C130.631 227.758 130.656 227.746 130.677 227.73C130.699 227.714 130.717 227.693 130.73 227.67C130.807 227.508 130.835 227.327 130.81 227.15C130.81 226.98 130.81 226.82 130.81 226.65C130.826 226.312 130.879 225.976 130.97 225.65C131.151 224.992 131.495 224.39 131.97 223.9C132.23 223.64 131.84 223.27 131.58 223.5L131.6 223.45Z" fill="#CC842D"/>
<path id="Vector_70" d="M143.77 237.05C148.163 237.357 152.557 237.637 156.95 237.89C161.1 238.25 165.269 238.34 169.43 238.16C171.747 238.057 174.039 237.633 176.24 236.9C176.31 236.869 176.367 236.813 176.4 236.744C176.433 236.675 176.439 236.596 176.419 236.522C176.398 236.448 176.351 236.383 176.287 236.341C176.223 236.298 176.146 236.28 176.07 236.29C174.044 236.833 171.977 237.207 169.89 237.41C167.878 237.573 165.857 237.617 163.84 237.54C159.61 237.42 155.39 237.1 151.16 236.9C148.7 236.78 146.23 236.68 143.77 236.58C143.46 236.58 143.47 237.03 143.77 237.05V237.05Z" fill="#CC842D"/>
<path id="Vector_71" d="M142.2 239.31C143.633 239.862 145.017 240.531 146.34 241.31C147.629 242.119 148.871 243.001 150.06 243.95C150.3 244.13 150.57 243.75 150.37 243.54C148.098 241.354 145.339 239.739 142.32 238.83C142.04 238.75 141.94 239.17 142.2 239.27V239.31Z" fill="#CC842D"/>
<path id="Vector_72" d="M201.73 232.46C204.86 232.46 207.99 232.21 211.11 231.89C212.6 231.73 214.11 231.56 215.58 231.35L217.87 231C218.629 230.942 219.375 230.781 220.09 230.52C220.37 230.38 220.2 230.01 219.94 229.98C219.215 229.981 218.493 230.072 217.79 230.25C217.07 230.37 216.34 230.48 215.62 230.58C214.04 230.8 212.45 231.01 210.87 231.18C207.87 231.51 204.78 231.73 201.73 231.9C201.37 231.9 201.37 232.47 201.73 232.46V232.46Z" fill="#CC842D"/>
</g>
<defs>
<filter id="filter0_d" x="-6.03354" y="19.9902" width="282.291" height="317.53" filterUnits="userSpaceOnUse" color-interpolation-filters="sRGB">
<feFlood flood-opacity="0" result="BackgroundImageFix"/>
<feColorMatrix in="SourceAlpha" type="matrix" values="0 0 0 0 0 0 0 0 0 0 0 0 0 0 0 0 0 0 127 0"/>
<feOffset dx="4" dy="8"/>
<feGaussianBlur stdDeviation="5"/>
<feColorMatrix type="matrix" values="0 0 0 0 0 0 0 0 0 0 0 0 0 0 0 0 0 0 0.25 0"/>
<feBlend mode="normal" in2="BackgroundImageFix" result="effect1_dropShadow"/>
<feBlend mode="normal" in="SourceGraphic" in2="effect1_dropShadow" result="shape"/>
</filter>
<clipPath id="clip0">
<rect width="357.92" height="329.77" fill="white"/>
</clipPath>
</defs>
</svg>
